<?xml version="1.0" encoding="utf-8"?><svg version="1.1" preserveAspectRatio="xMidYMid" xml:space="preserve" width="854.39169pt" height="509.19998999999995pt" viewBox="44.53441 76.96001 854.39169 509.19998999999995" xmlns="http://www.w3.org/2000/svg" xmlns:xlink="http://www.w3.org/1999/xlink"><desc xmlns:eadoc="http://www.siemens.com/eauml/doc"><eadoc:guid>EAID_37D7411C_1492_453f_8DDA_CCD4202A2DC5</eadoc:guid><eadoc:name>ISA Core Vocabularies v 1.00</eadoc:name><eadoc:type>Diagram</eadoc:type><eadoc:note></eadoc:note></desc><g transform="matrix(1 0 0 -1 0 828)"><g stroke="#000000" fill="none" fill-rule="evenodd" stroke-width="1" stroke-linecap="round" stroke-linejoin="round" stroke-miterlimit="3" letter-spacing="normal" font-weight="normal" font-style="normal" baseline-shift="0"><g transform="matrix(0.5 0 0 0.5 0 828)"><g transform="matrix(1.439299 0 0 -1.44 0 0)" font-family="CalibriUnicode" font-size="8"><path fill="#DFDFDF" stroke="none" d="M721 126C721 121 721 121 726 121H915C920 121 920 121 920 126V347C920 352 920 352 915 352H726C721 352 721 352 721 347V126" /><path fill="#FEFAF7" stroke="none" d="M718 123C718 118 718 118 723 118H912C917 118 917 118 917 123V344C917 349 917 349 912 349H723C718 349 718 349 718 344V123" /><path d="M718 123C718 118 718 118 723 118H912C917 118 917 118 917 123V344C917 349 917 349 912 349H723C718 349 718 349 718 344V123m0 0C718 118 718 118 723 118H912C917 118 917 118 917 123V344C917 349 917 349 912 349H723C718 349 718 349 718 344V123" /><rect x="718" y="118" width="199" height="231" /><text transform="matrix(1 0 0 1 798 127)" fill="#000000" font-weight="bold" stroke="none"><desc xmlns:eadoc="http://www.siemens.com/eauml/doc"><eadoc:guid>EAID_FAFDAEBD_DC17_48ab_B8A3_B2311DA155BE</eadoc:guid><eadoc:name>Legal Entity</eadoc:name><eadoc:type>Class</eadoc:type><eadoc:note>A legal entity able to transact business, typically registered with a body able to confer legal status such as a national business register.

In RDF terms, a legal entity is a sub class of dcterms:Agent and foaf:Agent.

In XML terms, this is equivalent to the UN/CEFACT term 'Business profile.'</eadoc:note></desc><tspan dx="0 " x="0" y="8">L</tspan><tspan dx="0 " x="3.5" y="8">e</tspan><tspan dx="0 " x="7.75" y="8">g</tspan><tspan dx="0 " x="11.75" y="8">a</tspan><tspan dx="0 " x="16" y="8">l</tspan><tspan dx="0 " x="18" y="8"> </tspan><tspan dx="0 " x="20" y="8">E</tspan><tspan dx="0 " x="24" y="8">n</tspan><tspan dx="0 0 " x="28.5" y="8">ti</tspan><tspan dx="0 " x="33.25" y="8">t</tspan><tspan dx="0 " x="36" y="8">y</tspan></text><path d="M718 142H917" /><text transform="matrix(1 0 0 1 723 146)" fill="#2F4F4F" stroke="none"><tspan dx="0 " x="0" y="8">+ </tspan></text><text transform="matrix(1 0 0 1 737 146)" fill="#2F4F4F" stroke="none"><tspan dx="0 " x="0" y="8">legalName: text [0..*]</tspan></text><text transform="matrix(1 0 0 1 723 156)" fill="#2F4F4F" stroke="none"><tspan dx="0 " x="0" y="8">+ </tspan></text><text transform="matrix(1 0 0 1 737 156)" fill="#2F4F4F" stroke="none"><tspan dx="0 " x="0" y="8">a</tspan><tspan dx="0 " x="4.5" y="8">l</tspan><tspan dx="0 " x="7" y="8">t</tspan><tspan dx="0 " x="10" y="8">e</tspan><tspan dx="0 " x="14.75" y="8">r</tspan><tspan dx="0 " x="18" y="8">n</tspan><tspan dx="0 " x="22.75" y="8">a</tspan><tspan dx="0 0 " x="27" y="8">ti</tspan><tspan dx="0 " x="32" y="8">v</tspan><tspan dx="0 " x="36.25" y="8">e</tspan><tspan dx="0 " x="40.75" y="8">N</tspan><tspan dx="0 " x="46.5" y="8">a</tspan><tspan dx="0 " x="50.75" y="8">m</tspan><tspan dx="0 " x="57.75" y="8">e</tspan><tspan dx="0 " x="62.25" y="8">:</tspan><tspan dx="0 " x="64.5" y="8"> </tspan><tspan dx="0 " x="66.75" y="8">t</tspan><tspan dx="0 " x="69.5" y="8">e</tspan><tspan dx="0 " x="74" y="8">x</tspan><tspan dx="0 " x="78" y="8">t</tspan><tspan dx="0 " x="80.75" y="8"> </tspan><tspan dx="0 " x="83" y="8">[</tspan><tspan dx="0 " x="85.75" y="8">0</tspan><tspan dx="0 " x="90.25" y="8">.</tspan><tspan dx="0 " x="92.5" y="8">.</tspan><tspan dx="0 " x="94.75" y="8">*</tspan><tspan dx="0 " x="99.25" y="8">]</tspan></text><path fill="#DFDFDF" stroke="none" d="M394 214C394 209 394 209 399 209H589C594 209 594 209 594 214V318C594 323 594 323 589 323H399C394 323 394 323 394 318V214" /><path fill="#FEFAF7" stroke="none" d="M391 211C391 206 391 206 396 206H586C591 206 591 206 591 211V315C591 320 591 320 586 320H396C391 320 391 320 391 315V211" /><path d="M391 211C391 206 391 206 396 206H586C591 206 591 206 591 211V315C591 320 591 320 586 320H396C391 320 391 320 391 315V211m0 0C391 206 391 206 396 206H586C591 206 591 206 591 211V315C591 320 591 320 586 320H396C391 320 391 320 391 315V211" /><rect x="391" y="206" width="200" height="114" /><text transform="matrix(1 0 0 1 476 215)" fill="#000000" font-weight="bold" stroke="none"><desc xmlns:eadoc="http://www.siemens.com/eauml/doc"><eadoc:guid>EAID_4252FD49_50E1_4fa8_AE37_1FE59010D3AB</eadoc:guid><eadoc:name>Identifier</eadoc:name><eadoc:type>Class</eadoc:type><eadoc:note>Any formally-issued identifier for a resource</eadoc:note></desc><tspan dx="0 " x="0" y="8">I</tspan><tspan dx="0 " x="2" y="8">d</tspan><tspan dx="0 " x="6.5" y="8">e</tspan><tspan dx="0 " x="10.75" y="8">n</tspan><tspan dx="0 0 " x="15" y="8">ti</tspan><tspan dx="0 0 " x="19.75" y="8">fi</tspan><tspan dx="0 " x="24.25" y="8">e</tspan><tspan dx="0 " x="28.25" y="8">r</tspan></text><path d="M391 230H591" /><text transform="matrix(1 0 0 1 396 234)" fill="#2F4F4F" stroke="none"><tspan dx="0 " x="0" y="8">+ </tspan></text><text transform="matrix(1 0 0 1 410 234)" fill="#2F4F4F" stroke="none"><tspan dx="0 " x="0" y="8">i</tspan><tspan dx="0 " x="2.5" y="8">d</tspan><tspan dx="0 " x="7.5" y="8">e</tspan><tspan dx="0 " x="12.25" y="8">n</tspan><tspan dx="0 0 " x="17.25" y="8">ti</tspan><tspan dx="0 0 " x="22.75" y="8">fi</tspan><tspan dx="0 " x="28" y="8">e</tspan><tspan dx="0 " x="32.5" y="8">r</tspan><tspan dx="0 " x="35.5" y="8">:</tspan><tspan dx="0 " x="37.75" y="8"> </tspan><tspan dx="0 " x="40" y="8">s</tspan><tspan dx="0 " x="43.75" y="8">t</tspan><tspan dx="0 " x="46.5" y="8">r</tspan><tspan dx="0 " x="49.5" y="8">i</tspan><tspan dx="0 " x="51.75" y="8">n</tspan><tspan dx="0 " x="56.5" y="8">g</tspan><tspan dx="0 " x="60.75" y="8"> </tspan><tspan dx="0 " x="63" y="8">[</tspan><tspan dx="0 " x="65.75" y="8">1</tspan><tspan dx="0 " x="70.25" y="8">.</tspan><tspan dx="0 " x="72.5" y="8">.</tspan><tspan dx="0 " x="74.75" y="8">1</tspan><tspan dx="0 " x="79.25" y="8">]</tspan></text><text transform="matrix(1 0 0 1 396 244)" fill="#2F4F4F" stroke="none"><tspan dx="0 " x="0" y="8">+ </tspan></text><text transform="matrix(1 0 0 1 410 244)" fill="#2F4F4F" stroke="none"><tspan dx="0 " x="0" y="8">i</tspan><tspan dx="0 " x="2.5" y="8">d</tspan><tspan dx="0 " x="7.5" y="8">e</tspan><tspan dx="0 " x="12.25" y="8">n</tspan><tspan dx="0 0 " x="17.25" y="8">ti</tspan><tspan dx="0 0 " x="22.25" y="8">fi</tspan><tspan dx="0 " x="27.25" y="8">e</tspan><tspan dx="0 " x="31.75" y="8">r</tspan><tspan dx="0 " x="34.75" y="8">T</tspan><tspan dx="0 " x="39" y="8">y</tspan><tspan dx="0 " x="43.25" y="8">p</tspan><tspan dx="0 " x="48" y="8">e</tspan><tspan dx="0 " x="52.5" y="8">:</tspan><tspan dx="0 " x="54.75" y="8"> </tspan><tspan dx="0 " x="57" y="8">s</tspan><tspan dx="0 " x="60.75" y="8">t</tspan><tspan dx="0 " x="63.5" y="8">r</tspan><tspan dx="0 " x="66.5" y="8">i</tspan><tspan dx="0 " x="68.75" y="8">n</tspan><tspan dx="0 " x="73.5" y="8">g</tspan><tspan dx="0 " x="77.75" y="8"> </tspan><tspan dx="0 " x="80" y="8">[</tspan><tspan dx="0 " x="82.75" y="8">0</tspan><tspan dx="0 " x="87.25" y="8">.</tspan><tspan dx="0 " x="89.5" y="8">.</tspan><tspan dx="0 " x="91.75" y="8">1</tspan><tspan dx="0 " x="96.25" y="8">]</tspan></text><text transform="matrix(1 0 0 1 396 254)" fill="#2F4F4F" stroke="none"><tspan dx="0 " x="0" y="8">+ </tspan></text><text transform="matrix(1 0 0 1 410 254)" fill="#2F4F4F" stroke="none"><tspan dx="0 " x="0" y="8">dateOfIssue: dateTime [0..1]</tspan></text><text transform="matrix(1 0 0 1 396 264)" fill="#2F4F4F" stroke="none"><tspan dx="0 " x="0" y="8">+ </tspan></text><text transform="matrix(1 0 0 1 410 264)" fill="#2F4F4F" stroke="none"><tspan dx="0 " x="0" y="8">issuingAuthority: string [0..1]</tspan></text><text transform="matrix(1 0 0 1 396 274)" fill="#2F4F4F" stroke="none"><tspan dx="0 " x="0" y="8">+ </tspan></text><text transform="matrix(1 0 0 1 410 274)" fill="#2F4F4F" stroke="none"><tspan dx="0 " x="0" y="8">issuingAuthorityUri: URI [0..1]</tspan></text><path fill="#DFDFDF" stroke="none" d="M86 228C86 223 86 223 91 223H280C285 223 285 223 285 228V506C285 511 285 511 280 511H91C86 511 86 511 86 506V228" /><path fill="#FEFAF7" stroke="none" d="M83 225C83 220 83 220 88 220H277C282 220 282 220 282 225V503C282 508 282 508 277 508H88C83 508 83 508 83 503V225" /><path d="M83 225C83 220 83 220 88 220H277C282 220 282 220 282 225V503C282 508 282 508 277 508H88C83 508 83 508 83 503V225m0 0C83 220 83 220 88 220H277C282 220 282 220 282 225V503C282 508 282 508 277 508H88C83 508 83 508 83 503V225" /><rect x="83" y="220" width="199" height="288" /><text transform="matrix(1 0 0 1 171 229)" fill="#000000" font-weight="bold" stroke="none"><desc xmlns:eadoc="http://www.siemens.com/eauml/doc"><eadoc:guid>EAID_A0ECD6E2_3D19_4928_8FAC_33C504817515</eadoc:guid><eadoc:name>Person</eadoc:name><eadoc:type>Class</eadoc:type><eadoc:note>A Natural Person</eadoc:note></desc><tspan dx="0 " x="0" y="8">Person</tspan></text><path d="M83 244H282" /><text transform="matrix(1 0 0 1 88 248)" fill="#2F4F4F" stroke="none"><tspan dx="0 " x="0" y="8">+ </tspan></text><text transform="matrix(1 0 0 1 102 248)" fill="#2F4F4F" stroke="none"><tspan dx="0 " x="0" y="8">fullName: string</tspan></text><text transform="matrix(1 0 0 1 88 258)" fill="#2F4F4F" stroke="none"><tspan dx="0 " x="0" y="8">+ </tspan></text><text transform="matrix(1 0 0 1 102 258)" fill="#2F4F4F" stroke="none"><tspan dx="0 " x="0" y="8">familyName: string</tspan></text><text transform="matrix(1 0 0 1 88 268)" fill="#2F4F4F" stroke="none"><tspan dx="0 " x="0" y="8">+ </tspan></text><text transform="matrix(1 0 0 1 102 268)" fill="#2F4F4F" stroke="none"><tspan dx="0 " x="0" y="8">givenName: string</tspan></text><text transform="matrix(1 0 0 1 88 278)" fill="#2F4F4F" stroke="none"><tspan dx="0 " x="0" y="8">+ </tspan></text><text transform="matrix(1 0 0 1 102 278)" fill="#2F4F4F" stroke="none"><tspan dx="0 " x="0" y="8">patronymicName: string</tspan></text><text transform="matrix(1 0 0 1 88 288)" fill="#2F4F4F" stroke="none"><tspan dx="0 " x="0" y="8">+ </tspan></text><text transform="matrix(1 0 0 1 102 288)" fill="#2F4F4F" stroke="none"><tspan dx="0 " x="0" y="8">a</tspan><tspan dx="0 " x="4.5" y="8">l</tspan><tspan dx="0 " x="7" y="8">t</tspan><tspan dx="0 " x="10" y="8">e</tspan><tspan dx="0 " x="14.75" y="8">r</tspan><tspan dx="0 " x="18" y="8">n</tspan><tspan dx="0 " x="23" y="8">a</tspan><tspan dx="0 0 " x="27.5" y="8">ti</tspan><tspan dx="0 " x="33" y="8">v</tspan><tspan dx="0 " x="37.5" y="8">e</tspan><tspan dx="0 " x="42.25" y="8">N</tspan><tspan dx="0 " x="48.25" y="8">a</tspan><tspan dx="0 " x="52.75" y="8">m</tspan><tspan dx="0 " x="60" y="8">e</tspan><tspan dx="0 " x="64.75" y="8">:</tspan><tspan dx="0 " x="67.25" y="8"> </tspan><tspan dx="0 " x="69.5" y="8">s</tspan><tspan dx="0 " x="73" y="8">t</tspan><tspan dx="0 " x="75.75" y="8">r</tspan><tspan dx="0 " x="78.75" y="8">i</tspan><tspan dx="0 " x="81" y="8">n</tspan><tspan dx="0 " x="85.75" y="8">g</tspan></text><text transform="matrix(1 0 0 1 88 298)" fill="#2F4F4F" stroke="none"><tspan dx="0 " x="0" y="8">+ </tspan></text><text transform="matrix(1 0 0 1 102 298)" fill="#2F4F4F" stroke="none"><tspan dx="0 " x="0" y="8">gender: code</tspan></text><text transform="matrix(1 0 0 1 88 308)" fill="#2F4F4F" stroke="none"><tspan dx="0 " x="0" y="8">+ </tspan></text><text transform="matrix(1 0 0 1 102 308)" fill="#2F4F4F" stroke="none"><tspan dx="0 " x="0" y="8">birthName: string</tspan></text><text transform="matrix(1 0 0 1 88 318)" fill="#2F4F4F" stroke="none"><tspan dx="0 " x="0" y="8">+ </tspan></text><text transform="matrix(1 0 0 1 102 318)" fill="#2F4F4F" stroke="none"><tspan dx="0 " x="0" y="8">dateOfBirth: dateTime</tspan></text><text transform="matrix(1 0 0 1 88 328)" fill="#2F4F4F" stroke="none"><tspan dx="0 " x="0" y="8">+ </tspan></text><text transform="matrix(1 0 0 1 102 328)" fill="#2F4F4F" stroke="none"><tspan dx="0 " x="0" y="8">dateOfDeath: dateTime</tspan></text><path fill="#DFDFDF" stroke="none" d="M80 126C80 121 80 121 85 121H275C280 121 280 121 280 126v59C280 190 280 190 275 190H85C80 190 80 190 80 185V126" /><path fill="#FEFAF7" stroke="none" d="M77 123C77 118 77 118 82 118H272C277 118 277 118 277 123v59C277 187 277 187 272 187H82C77 187 77 187 77 182V123" /><path d="M77 123C77 118 77 118 82 118H272C277 118 277 118 277 123v59C277 187 277 187 272 187H82C77 187 77 187 77 182V123m0 0C77 118 77 118 82 118H272C277 118 277 118 277 123v59C277 187 277 187 272 187H82C77 187 77 187 77 182V123" /><rect x="77" y="118" width="200" height="69" /><text transform="matrix(1 0 0 1 167 127)" fill="#000000" font-weight="bold" stroke="none"><desc xmlns:eadoc="http://www.siemens.com/eauml/doc"><eadoc:guid>EAID_F41DDB41_25B4_4b39_88FD_7B1D1D8D373A</eadoc:guid><eadoc:name>Agent</eadoc:name><eadoc:type>Class</eadoc:type><eadoc:note>A resource that acts or has the power to act.</eadoc:note></desc><tspan dx="0 " x="0" y="8">Agent</tspan></text><path fill="#DFDFDF" stroke="none" d="M722 523C722 518 722 518 727 518H916C921 518 921 518 921 523V785C921 790 921 790 916 790H727C722 790 722 790 722 785V523" /><path fill="#FEFAF7" stroke="none" d="M719 520C719 515 719 515 724 515H913C918 515 918 515 918 520V782C918 787 918 787 913 787H724C719 787 719 787 719 782V520" /><path d="M719 520C719 515 719 515 724 515H913C918 515 918 515 918 520V782C918 787 918 787 913 787H724C719 787 719 787 719 782V520m0 0C719 515 719 515 724 515H913C918 515 918 515 918 520V782C918 787 918 787 913 787H724C719 787 719 787 719 782V520" /><rect x="719" y="515" width="199" height="272" /><text transform="matrix(1 0 0 1 805 524)" fill="#000000" font-weight="bold" stroke="none"><desc xmlns:eadoc="http://www.siemens.com/eauml/doc"><eadoc:guid>EAID_650BCC62_B5E6_4070_8DC6_A39F0953E191</eadoc:guid><eadoc:name>Address</eadoc:name><eadoc:type>Class</eadoc:type><eadoc:note></eadoc:note></desc><tspan dx="0 " x="0" y="8">Address</tspan></text><path d="M719 539H918" /><text transform="matrix(1 0 0 1 724 543)" fill="#2F4F4F" stroke="none"><tspan dx="0 " x="0" y="8">+ </tspan></text><text transform="matrix(1 0 0 1 738 543)" fill="#2F4F4F" stroke="none"><tspan dx="0 " x="0" y="8">fullAddress: string</tspan></text><text transform="matrix(1 0 0 1 724 553)" fill="#2F4F4F" stroke="none"><tspan dx="0 " x="0" y="8">+ </tspan></text><text transform="matrix(1 0 0 1 738 553)" fill="#2F4F4F" stroke="none"><tspan dx="0 " x="0" y="8">poBox: string</tspan></text><text transform="matrix(1 0 0 1 724 563)" fill="#2F4F4F" stroke="none"><tspan dx="0 " x="0" y="8">+ </tspan></text><text transform="matrix(1 0 0 1 738 563)" fill="#2F4F4F" stroke="none"><tspan dx="0 " x="0" y="8">thoroughfare: string</tspan></text><text transform="matrix(1 0 0 1 724 573)" fill="#2F4F4F" stroke="none"><tspan dx="0 " x="0" y="8">+ </tspan></text><text transform="matrix(1 0 0 1 738 573)" fill="#2F4F4F" stroke="none"><tspan dx="0 " x="0" y="8">locatorDesignator: string</tspan></text><text transform="matrix(1 0 0 1 724 583)" fill="#2F4F4F" stroke="none"><tspan dx="0 " x="0" y="8">+ </tspan></text><text transform="matrix(1 0 0 1 738 583)" fill="#2F4F4F" stroke="none"><tspan dx="0 " x="0" y="8">locatorName: string</tspan></text><text transform="matrix(1 0 0 1 724 593)" fill="#2F4F4F" stroke="none"><tspan dx="0 " x="0" y="8">+ </tspan></text><text transform="matrix(1 0 0 1 738 593)" fill="#2F4F4F" stroke="none"><tspan dx="0 " x="0" y="8">addressArea: string</tspan></text><text transform="matrix(1 0 0 1 724 603)" fill="#2F4F4F" stroke="none"><tspan dx="0 " x="0" y="8">+ </tspan></text><text transform="matrix(1 0 0 1 738 603)" fill="#2F4F4F" stroke="none"><tspan dx="0 " x="0" y="8">postName: string</tspan></text><text transform="matrix(1 0 0 1 724 613)" fill="#2F4F4F" stroke="none"><tspan dx="0 " x="0" y="8">+ </tspan></text><text transform="matrix(1 0 0 1 738 613)" fill="#2F4F4F" stroke="none"><tspan dx="0 " x="0" y="8">adminUnitL2: string</tspan></text><text transform="matrix(1 0 0 1 724 623)" fill="#2F4F4F" stroke="none"><tspan dx="0 " x="0" y="8">+ </tspan></text><text transform="matrix(1 0 0 1 738 623)" fill="#2F4F4F" stroke="none"><tspan dx="0 " x="0" y="8">adminUnitL1: string</tspan></text><text transform="matrix(1 0 0 1 724 633)" fill="#2F4F4F" stroke="none"><tspan dx="0 " x="0" y="8">+ </tspan></text><text transform="matrix(1 0 0 1 738 633)" fill="#2F4F4F" stroke="none"><tspan dx="0 " x="0" y="8">postCode: string</tspan></text><text transform="matrix(1 0 0 1 724 643)" fill="#2F4F4F" stroke="none"><tspan dx="0 " x="0" y="8">+ </tspan></text><text transform="matrix(1 0 0 1 738 643)" fill="#2F4F4F" stroke="none"><tspan dx="0 " x="0" y="8">addressID: string</tspan></text><path fill="#DFDFDF" stroke="none" d="M394 344C394 339 394 339 399 339H589C594 339 594 339 594 344v68C594 417 594 417 589 417H399C394 417 394 417 394 412V344" /><path fill="#FEFAF7" stroke="none" d="M391 341C391 336 391 336 396 336H586C591 336 591 336 591 341v68C591 414 591 414 586 414H396C391 414 391 414 391 409V341" /><path d="M391 341C391 336 391 336 396 336H586C591 336 591 336 591 341v68C591 414 591 414 586 414H396C391 414 391 414 391 409V341m0 0C391 336 391 336 396 336H586C591 336 591 336 591 341v68C591 414 591 414 586 414H396C391 414 391 414 391 409V341" /><rect x="391" y="336" width="200" height="78" /><text transform="matrix(1 0 0 1 467 342)" fill="#000000" stroke="none"><tspan dx="0 " x="0" y="8">«Place Holder»</tspan></text><text transform="matrix(1 0 0 1 479 352)" fill="#000000" font-weight="bold" font-style="italic" stroke="none"><desc xmlns:eadoc="http://www.siemens.com/eauml/doc"><eadoc:guid>EAID_28D6807E_B59D_4501_BA49_6F19B5600DD7</eadoc:guid><eadoc:name>Change</eadoc:name><eadoc:type>Class</eadoc:type><eadoc:note>A record of a change in data</eadoc:note></desc><tspan dx="0 " x="0" y="8">Change</tspan></text><path fill="#DFDFDF" stroke="none" d="M79 728C79 723 79 723 84 723H273C278 723 278 723 278 728v70C278 803 278 803 273 803H84C79 803 79 803 79 798V728" /><path fill="#FEFAF7" stroke="none" d="M76 725C76 720 76 720 81 720H270C275 720 275 720 275 725v70C275 800 275 800 270 800H81C76 800 76 800 76 795V725" /><path d="M76 725C76 720 76 720 81 720H270C275 720 275 720 275 725v70C275 800 275 800 270 800H81C76 800 76 800 76 795V725m0 0C76 720 76 720 81 720H270C275 720 275 720 275 725v70C275 800 275 800 270 800H81C76 800 76 800 76 795V725" /><rect x="76" y="720" width="199" height="80" /><text transform="matrix(1 0 0 1 162 729)" fill="#000000" font-weight="bold" stroke="none"><desc xmlns:eadoc="http://www.siemens.com/eauml/doc"><eadoc:guid>EAID_C893D9C5_F21F_401b_A896_22D5EB56D6A7</eadoc:guid><eadoc:name>Location</eadoc:name><eadoc:type>Class</eadoc:type><eadoc:note></eadoc:note></desc><tspan dx="0 " x="0" y="8">L</tspan><tspan dx="0 " x="3.25" y="8">o</tspan><tspan dx="0 " x="7.5" y="8">c</tspan><tspan dx="0 " x="10.75" y="8">a</tspan><tspan dx="0 0 " x="14.75" y="8">ti</tspan><tspan dx="0 " x="19.5" y="8">o</tspan><tspan dx="0 " x="23.75" y="8">n</tspan></text><path d="M76 744H275" /><text transform="matrix(1 0 0 1 81 748)" fill="#2F4F4F" stroke="none"><tspan dx="0 " x="0" y="8">+ </tspan></text><text transform="matrix(1 0 0 1 95 748)" fill="#2F4F4F" stroke="none"><tspan dx="0 " x="0" y="8">geographicName: string</tspan></text><text transform="matrix(1 0 0 1 81 758)" fill="#2F4F4F" stroke="none"><tspan dx="0 " x="0" y="8">+ </tspan></text><text transform="matrix(1 0 0 1 95 758)" fill="#2F4F4F" stroke="none"><tspan dx="0 " x="0" y="8">g</tspan><tspan dx="0 " x="4.5" y="8">e</tspan><tspan dx="0 " x="9.25" y="8">o</tspan><tspan dx="0 " x="14.25" y="8">g</tspan><tspan dx="0 " x="18.75" y="8">r</tspan><tspan dx="0 " x="22" y="8">a</tspan><tspan dx="0 " x="26.5" y="8">p</tspan><tspan dx="0 " x="31.5" y="8">h</tspan><tspan dx="0 " x="36.5" y="8">i</tspan><tspan dx="0 " x="39" y="8">c</tspan><tspan dx="0 " x="42.75" y="8">I</tspan><tspan dx="0 " x="45.25" y="8">d</tspan><tspan dx="0 " x="50.25" y="8">e</tspan><tspan dx="0 " x="55" y="8">n</tspan><tspan dx="0 0 " x="60" y="8">ti</tspan><tspan dx="0 0 " x="65.25" y="8">fi</tspan><tspan dx="0 " x="70.25" y="8">e</tspan><tspan dx="0 " x="74.75" y="8">r</tspan><tspan dx="0 " x="77.75" y="8">:</tspan><tspan dx="0 " x="80" y="8"> </tspan><tspan dx="0 " x="82.25" y="8">U</tspan><tspan dx="0 " x="88" y="8">R</tspan><tspan dx="0 " x="92.75" y="8">I</tspan></text><path fill="#DFDFDF" stroke="none" d="M395 537C395 532 395 532 400 532H589C594 532 594 532 594 537v86C594 628 594 628 589 628H400C395 628 395 628 395 623V537" /><path fill="#FEFAF7" stroke="none" d="M392 534C392 529 392 529 397 529H586C591 529 591 529 591 534v86C591 625 591 625 586 625H397C392 625 392 625 392 620V534" /><path d="M392 534C392 529 392 529 397 529H586C591 529 591 529 591 534v86C591 625 591 625 586 625H397C392 625 392 625 392 620V534m0 0C392 529 392 529 397 529H586C591 529 591 529 591 534v86C591 625 591 625 586 625H397C392 625 392 625 392 620V534" /><rect x="392" y="529" width="199" height="96" /><text transform="matrix(1 0 0 1 474 538)" fill="#000000" font-weight="bold" stroke="none"><desc xmlns:eadoc="http://www.siemens.com/eauml/doc"><eadoc:guid>EAID_64FACE70_D1C3_42f6_BAB3_BEC548411487</eadoc:guid><eadoc:name>Geometry</eadoc:name><eadoc:type>Class</eadoc:type><eadoc:note></eadoc:note></desc><tspan dx="0 " x="0" y="8">Geometry</tspan></text><path d="M392 553H591" /><text transform="matrix(1 0 0 1 397 557)" fill="#2F4F4F" stroke="none"><tspan dx="0 " x="0" y="8">+ </tspan></text><text transform="matrix(1 0 0 1 411 557)" fill="#2F4F4F" stroke="none"><tspan dx="0 " x="0" y="8">wkt: string</tspan></text><text transform="matrix(1 0 0 1 397 567)" fill="#2F4F4F" stroke="none"><tspan dx="0 " x="0" y="8">+ </tspan></text><text transform="matrix(1 0 0 1 411 567)" fill="#2F4F4F" stroke="none"><tspan dx="0 " x="0" y="8">lat: string</tspan></text><text transform="matrix(1 0 0 1 397 577)" fill="#2F4F4F" stroke="none"><tspan dx="0 " x="0" y="8">+ </tspan></text><text transform="matrix(1 0 0 1 411 577)" fill="#2F4F4F" stroke="none"><tspan dx="0 " x="0" y="8">long: string</tspan></text><text transform="matrix(1 0 0 1 397 587)" fill="#2F4F4F" stroke="none"><tspan dx="0 " x="0" y="8">+ </tspan></text><text transform="matrix(1 0 0 1 411 587)" fill="#2F4F4F" stroke="none"><tspan dx="0 " x="0" y="8">xmlGeometry: XML</tspan></text><path fill="#DFDFDF" stroke="none" d="M1038 126C1038 121 1038 121 1043 121h190C1238 121 1238 121 1238 126v59C1238 190 1238 190 1233 190H1043C1038 190 1038 190 1038 185V126" /><path fill="#FEFAF7" stroke="none" d="M1035 123C1035 118 1035 118 1040 118h190C1235 118 1235 118 1235 123v59C1235 187 1235 187 1230 187H1040C1035 187 1035 187 1035 182V123" /><path d="M1035 123C1035 118 1035 118 1040 118h190C1235 118 1235 118 1235 123v59C1235 187 1235 187 1230 187H1040C1035 187 1035 187 1035 182V123m0 0C1035 118 1035 118 1040 118h190C1235 118 1235 118 1235 123v59C1235 187 1235 187 1230 187H1040C1035 187 1035 187 1035 182V123" /><rect x="1035" y="118" width="200" height="69" /><text transform="matrix(1 0 0 1 1111 124)" fill="#000000" stroke="none"><tspan dx="0 " x="0" y="8">«Place Holder»</tspan></text><text transform="matrix(1 0 0 1 1123 134)" fill="#000000" font-weight="bold" stroke="none"><desc xmlns:eadoc="http://www.siemens.com/eauml/doc"><eadoc:guid>EAID_3E2A3F4E_48A4_48c6_8908_DF91B68DF793</eadoc:guid><eadoc:name>Licence</eadoc:name><eadoc:type>Class</eadoc:type><eadoc:note>A place holder for a future licence class that is officially issued to a legal entity in order for them to carry out some activity or another. For example, a banking licence.</eadoc:note></desc><tspan dx="0 " x="0" y="8">Licence</tspan></text><path fill="#DFDFDF" stroke="none" d="M1038 230C1038 225 1038 225 1043 225h190C1238 225 1238 225 1238 230V453C1238 458 1238 458 1233 458H1043C1038 458 1038 458 1038 453V230" /><path fill="#FEFAF7" stroke="none" d="M1035 227C1035 222 1035 222 1040 222h190C1235 222 1235 222 1235 227V450C1235 455 1235 455 1230 455H1040C1035 455 1035 455 1035 450V227" /><path d="M1035 227C1035 222 1035 222 1040 222h190C1235 222 1235 222 1235 227V450C1235 455 1235 455 1230 455H1040C1035 455 1035 455 1035 450V227m0 0C1035 222 1035 222 1040 222h190C1235 222 1235 222 1235 227V450C1235 455 1235 455 1230 455H1040C1035 455 1035 455 1035 450V227" /><rect x="1035" y="222" width="200" height="233" /><text transform="matrix(1 0 0 1 1127 231)" fill="#000000" font-weight="bold" stroke="none"><desc xmlns:eadoc="http://www.siemens.com/eauml/doc"><eadoc:guid>EAID_C819F639_92F4_4235_BE20_2252B3AAC098</eadoc:guid><eadoc:name>Code</eadoc:name><eadoc:type>Class</eadoc:type><eadoc:note></eadoc:note></desc><tspan dx="0 " x="0" y="8">Code</tspan></text><path d="M1035 246h200" /><text transform="matrix(1 0 0 1 1040 250)" fill="#2F4F4F" stroke="none"><tspan dx="0 " x="0" y="8">+ </tspan></text><text transform="matrix(1 0 0 1 1054 250)" fill="#2F4F4F" stroke="none"><tspan dx="0 " x="0" y="8">content: string</tspan></text><text transform="matrix(1 0 0 1 1040 260)" fill="#2F4F4F" stroke="none"><tspan dx="0 " x="0" y="8">+ </tspan></text><text transform="matrix(1 0 0 1 1054 260)" fill="#2F4F4F" stroke="none"><tspan dx="0 " x="0" y="8">list: string</tspan></text><text transform="matrix(1 0 0 1 1040 270)" fill="#2F4F4F" stroke="none"><tspan dx="0 " x="0" y="8">+ </tspan></text><text transform="matrix(1 0 0 1 1054 270)" fill="#2F4F4F" stroke="none"><tspan dx="0 " x="0" y="8">list agency: string</tspan></text><text transform="matrix(1 0 0 1 1040 280)" fill="#2F4F4F" stroke="none"><tspan dx="0 " x="0" y="8">+ </tspan></text><text transform="matrix(1 0 0 1 1054 280)" fill="#2F4F4F" stroke="none"><tspan dx="0 " x="0" y="8">list version: string</tspan></text><path fill="#DFDFDF" stroke="none" d="M393 441C393 436 393 436 398 436H588C593 436 593 436 593 441v67C593 513 593 513 588 513H398C393 513 393 513 393 508V441" /><path fill="#FEFAF7" stroke="none" d="M390 438C390 433 390 433 395 433H585C590 433 590 433 590 438v67C590 510 590 510 585 510H395C390 510 390 510 390 505V438" /><path d="M390 438C390 433 390 433 395 433H585C590 433 590 433 590 438v67C590 510 590 510 585 510H395C390 510 390 510 390 505V438m0 0C390 433 390 433 395 433H585C590 433 590 433 590 438v67C590 510 590 510 585 510H395C390 510 390 510 390 505V438" /><rect x="390" y="433" width="200" height="77" /><text transform="matrix(1 0 0 1 471 442)" fill="#000000" font-weight="bold" stroke="none"><desc xmlns:eadoc="http://www.siemens.com/eauml/doc"><eadoc:guid>EAID_1F35C0ED_487E_44cf_B155_FAA631266668</eadoc:guid><eadoc:name>Jurisdiction</eadoc:name><eadoc:type>Class</eadoc:type><eadoc:note></eadoc:note></desc><tspan dx="0 " x="0" y="8">J</tspan><tspan dx="0 " x="2.5" y="8">u</tspan><tspan dx="0 " x="7" y="8">r</tspan><tspan dx="0 " x="9.75" y="8">i</tspan><tspan dx="0 " x="11.75" y="8">s</tspan><tspan dx="0 " x="15.25" y="8">d</tspan><tspan dx="0 " x="19.5" y="8">i</tspan><tspan dx="0 " x="21.5" y="8">c</tspan><tspan dx="0 0 " x="24.75" y="8">ti</tspan><tspan dx="0 " x="29.5" y="8">o</tspan><tspan dx="0 " x="33.75" y="8">n</tspan></text><path d="M390 457H590" /><text transform="matrix(1 0 0 1 395 461)" fill="#2F4F4F" stroke="none"><tspan dx="0 " x="0" y="8">+ </tspan></text><text transform="matrix(1 0 0 1 409 461)" fill="#2F4F4F" stroke="none"><tspan dx="0 " x="0" y="8">name: text</tspan></text><text transform="matrix(1 0 0 1 395 471)" fill="#2F4F4F" stroke="none"><tspan dx="0 " x="0" y="8">+ </tspan></text><text transform="matrix(1 0 0 1 409 471)" fill="#2F4F4F" stroke="none"><tspan dx="0 " x="0" y="8">id: URI</tspan></text><path fill="#DFDFDF" stroke="none" d="M1039 730C1039 725 1039 725 1044 725h189C1238 725 1238 725 1238 730v68C1238 803 1238 803 1233 803H1044C1039 803 1039 803 1039 798V730" /><path fill="#FEFAF7" stroke="none" d="M1036 727C1036 722 1036 722 1041 722h189C1235 722 1235 722 1235 727v68C1235 800 1235 800 1230 800H1041C1036 800 1036 800 1036 795V727" /><path d="M1036 727C1036 722 1036 722 1041 722h189C1235 722 1235 722 1235 727v68C1235 800 1235 800 1230 800H1041C1036 800 1036 800 1036 795V727m0 0C1036 722 1036 722 1041 722h189C1235 722 1235 722 1235 727v68C1235 800 1235 800 1230 800H1041C1036 800 1036 800 1036 795V727" /><rect x="1036" y="722" width="199" height="78" /><text transform="matrix(1 0 0 1 1118 728)" fill="#000000" stroke="none"><tspan dx="0 " x="0" y="8">«abstract»</tspan></text><text transform="matrix(1 0 0 1 1075 738)" fill="#000000" font-weight="bold" stroke="none"><desc xmlns:eadoc="http://www.siemens.com/eauml/doc"><eadoc:guid>EAID_C9A780B0_2406_4bed_8389_C06D1E160C9F</eadoc:guid><eadoc:name>Alternative Address Representation</eadoc:name><eadoc:type>Class</eadoc:type><eadoc:note></eadoc:note></desc><tspan dx="0 " x="0" y="8">A</tspan><tspan dx="0 " x="5" y="8">l</tspan><tspan dx="0 " x="7" y="8">t</tspan><tspan dx="0 " x="9.75" y="8">e</tspan><tspan dx="0 " x="14" y="8">r</tspan><tspan dx="0 " x="16.75" y="8">n</tspan><tspan dx="0 " x="21.25" y="8">a</tspan><tspan dx="0 0 " x="25.5" y="8">ti</tspan><tspan dx="0 " x="30.25" y="8">v</tspan><tspan dx="0 " x="34.25" y="8">e</tspan><tspan dx="0 " x="38.5" y="8"> </tspan><tspan dx="0 " x="40.5" y="8">A</tspan><tspan dx="0 " x="45.5" y="8">d</tspan><tspan dx="0 " x="50" y="8">d</tspan><tspan dx="0 " x="54.5" y="8">r</tspan><tspan dx="0 " x="57.25" y="8">e</tspan><tspan dx="0 " x="61.5" y="8">s</tspan><tspan dx="0 " x="64.75" y="8">s</tspan><tspan dx="0 " x="68" y="8"> </tspan><tspan dx="0 " x="70" y="8">R</tspan><tspan dx="0 " x="74.75" y="8">e</tspan><tspan dx="0 " x="79" y="8">p</tspan><tspan dx="0 " x="83.5" y="8">r</tspan><tspan dx="0 " x="86.25" y="8">e</tspan><tspan dx="0 " x="90.5" y="8">s</tspan><tspan dx="0 " x="93.75" y="8">e</tspan><tspan dx="0 " x="97.75" y="8">n</tspan><tspan dx="0 " x="102" y="8">t</tspan><tspan dx="0 " x="104.75" y="8">a</tspan><tspan dx="0 0 " x="108.75" y="8">ti</tspan><tspan dx="0 " x="113.5" y="8">o</tspan><tspan dx="0 " x="117.75" y="8">n</tspan></text><path d="M1036 753h199" /><text transform="matrix(1 0 0 1 1041 757)" fill="#2F4F4F" stroke="none"><tspan dx="0 " x="0" y="8">+ </tspan></text><text transform="matrix(1 0 0 1 1055 757)" fill="#2F4F4F" stroke="none"><tspan dx="0 " x="0" y="8">addressID: string</tspan></text><path fill="#DFDFDF" stroke="none" d="M395 672C395 667 395 667 400 667H589C594 667 594 667 594 672v87C594 764 594 764 589 764H400C395 764 395 764 395 759V672" /><path fill="#FEFAF7" stroke="none" d="M392 669C392 664 392 664 397 664H586C591 664 591 664 591 669v87C591 761 591 761 586 761H397C392 761 392 761 392 756V669" /><path d="M392 669C392 664 392 664 397 664H586C591 664 591 664 591 669v87C591 761 591 761 586 761H397C392 761 392 761 392 756V669m0 0C392 664 392 664 397 664H586C591 664 591 664 591 669v87C591 761 591 761 586 761H397C392 761 392 761 392 756V669" /><rect x="392" y="664" width="199" height="97" /><text transform="matrix(1 0 0 1 426 673)" fill="#000000" font-weight="bold" stroke="none"><desc xmlns:eadoc="http://www.siemens.com/eauml/doc"><eadoc:guid>EAID_E2419893_34EE_43c6_B0EF_AF2D5AC70C37</eadoc:guid><eadoc:name>Geometry (alternative representation)</eadoc:name><eadoc:type>Class</eadoc:type><eadoc:note></eadoc:note></desc><tspan dx="0 " x="0" y="8">G</tspan><tspan dx="0 " x="5.25" y="8">e</tspan><tspan dx="0 " x="9.5" y="8">o</tspan><tspan dx="0 " x="14" y="8">m</tspan><tspan dx="0 " x="20.75" y="8">e</tspan><tspan dx="0 " x="25" y="8">t</tspan><tspan dx="0 " x="27.75" y="8">r</tspan><tspan dx="0 " x="30.5" y="8">y</tspan><tspan dx="0 " x="34.5" y="8"> </tspan><tspan dx="0 " x="36.5" y="8">(</tspan><tspan dx="0 " x="39" y="8">a</tspan><tspan dx="0 " x="43.25" y="8">l</tspan><tspan dx="0 " x="45.25" y="8">t</tspan><tspan dx="0 " x="48" y="8">e</tspan><tspan dx="0 " x="52.25" y="8">r</tspan><tspan dx="0 " x="55" y="8">n</tspan><tspan dx="0 " x="59.5" y="8">a</tspan><tspan dx="0 0 " x="63.75" y="8">ti</tspan><tspan dx="0 " x="68.5" y="8">v</tspan><tspan dx="0 " x="72.5" y="8">e</tspan><tspan dx="0 " x="76.75" y="8"> </tspan><tspan dx="0 " x="78.75" y="8">r</tspan><tspan dx="0 " x="81.5" y="8">e</tspan><tspan dx="0 " x="85.75" y="8">p</tspan><tspan dx="0 " x="90.25" y="8">r</tspan><tspan dx="0 " x="93" y="8">e</tspan><tspan dx="0 " x="97.25" y="8">s</tspan><tspan dx="0 " x="100.5" y="8">e</tspan><tspan dx="0 " x="104.75" y="8">n</tspan><tspan dx="0 " x="109.25" y="8">t</tspan><tspan dx="0 " x="112" y="8">a</tspan><tspan dx="0 0 " x="116.25" y="8">ti</tspan><tspan dx="0 " x="121" y="8">o</tspan><tspan dx="0 " x="125.25" y="8">n</tspan><tspan dx="0 " x="129.5" y="8">)</tspan></text><path d="M392 688H591" /><text transform="matrix(1 0 0 1 397 692)" fill="#2F4F4F" stroke="none"><tspan dx="0 " x="0" y="8">+ </tspan></text><text transform="matrix(1 0 0 1 411 692)" fill="#2F4F4F" stroke="none"><tspan dx="0 " x="0" y="8">coordinates: CoordinateList</tspan></text><text transform="matrix(1 0 0 1 397 702)" fill="#2F4F4F" stroke="none"><tspan dx="0 " x="0" y="8">+ </tspan></text><text transform="matrix(1 0 0 1 411 702)" fill="#2F4F4F" stroke="none"><tspan dx="0 " x="0" y="8">c</tspan><tspan dx="0 " x="4" y="8">r</tspan><tspan dx="0 " x="7.25" y="8">s</tspan><tspan dx="0 " x="11.25" y="8">:</tspan><tspan dx="0 " x="13.75" y="8"> </tspan><tspan dx="0 " x="16.25" y="8">C</tspan><tspan dx="0 " x="21.25" y="8">R</tspan><tspan dx="0 " x="26" y="8">S</tspan><tspan dx="0 " x="30.25" y="8">I</tspan><tspan dx="0 " x="32.5" y="8">d</tspan><tspan dx="0 " x="37.25" y="8">e</tspan><tspan dx="0 " x="41.75" y="8">n</tspan><tspan dx="0 0 " x="46.5" y="8">ti</tspan><tspan dx="0 0 " x="51.5" y="8">fi</tspan><tspan dx="0 " x="56.5" y="8">e</tspan><tspan dx="0 " x="61" y="8">r</tspan></text><text transform="matrix(1 0 0 1 397 712)" fill="#2F4F4F" stroke="none"><tspan dx="0 " x="0" y="8">+ </tspan></text><text transform="matrix(1 0 0 1 411 712)" fill="#2F4F4F" stroke="none"><tspan dx="0 " x="0" y="8">geometryType: GeometryType [0..1]</tspan></text><path d="M592 244H718m0 0l-15 6m15 -6l-15 -6" /><path d="M718 155H278" /><path fill="#F7DDB4" d="M294 149v12l-16 -6l16 -6" /><path d="M283 300H391m0 0l-15 6m15 -6l-15 -6" /><path d="M718 273H592m0 0l15 -6m-15 6l15 6" /><path d="M718 305H592m0 0l15 -6m-15 6l15 6" /><path d="M92 509V720m0 0L86 705m6 15l6 -15" /><path d="M139 509V720m0 0l-6 -15m6 15l6 -15" /><path d="M196 509V720m0 0l-6 -15m6 15l6 -15" /><path d="M249 509V720m0 0l-6 -15m6 15l6 -15" /><path d="M718 345H592m0 0l15 -6m-15 6l15 6" /><path d="M276 735h58m0 0V622m0 0h58m0 0l-15 6m15 -6l-15 -6" /><path d="M182 220V188" /><path fill="#F7DDB4" d="M188 204H176l6 -16l6 16" /><path d="M391 257H283m0 0l15 -6m-15 6l15 6" /><path d="M918 251h117m0 0l-15 6m15 -6l-15 -6" /><path d="M283 391H391m0 0l-15 6m15 -6l-15 -6" /><path d="M276 777H719m0 0l-15 6m15 -6l-15 -6" /><path d="M721 515V405m0 0H592m0 0l15 -6m-15 6l15 6" /><path d="M918 168h117m0 0l-15 6m15 -6l-15 -6m15 -15H918m0 0l15 -6m-15 6l15 6" /><path d="M283 495H390m0 0l-15 6m15 -6l-15 -6" /><path d="M283 452H390m0 0l-15 6m15 -6l-15 -6" /><path d="M276 754H392m0 0l-15 6m15 -6l-15 -6" /><path d="M918 338h117m0 0l-15 6m15 -6l-15 -6" /><path d="M918 288h117m0 0l-15 6m15 -6l-15 -6" /><path d="M818 350V515m0 0l-6 -15m6 15l6 -15" /><g transform="matrix(1 0 0 -1 235 692)"><rect fill="#FFFFFF" stroke="none" x="0" width="56" y="-10" height="10" /></g><text transform="matrix(1 0 0 1 235 692)" fill="#000000" stroke="none"><tspan dx="0 " x="0" y="8">+placeOfDeath</tspan></text><g transform="matrix(1 0 0 -1 687 762)"><rect fill="#FFFFFF" stroke="none" x="0" width="35" y="-10" height="10" /></g><text transform="matrix(1 0 0 1 687 762)" fill="#000000" stroke="none"><tspan dx="0 " x="0" y="8">+address</tspan></text><g transform="matrix(1 0 0 -1 73 648)"><rect fill="#FFFFFF" stroke="none" x="0" width="58" y="-10" height="10" /></g><text transform="matrix(1 0 0 1 73 648)" fill="#000000" stroke="none"><tspan dx="0 " x="0" y="8">+countryOfBirth</tspan></text><g transform="matrix(1 0 0 -1 855 501)"><rect fill="#FFFFFF" stroke="none" x="0" width="74" y="-10" height="10" /></g><text transform="matrix(1 0 0 1 855 501)" fill="#000000" stroke="none"><tspan dx="0 " x="0" y="8">+registeredAddress</tspan></text><g transform="matrix(1 0 0 -1 791 501)"><rect fill="#FFFFFF" stroke="none" x="0" width="13" y="-10" height="10" /></g><text transform="matrix(1 0 0 1 791 501)" fill="#000000" stroke="none"><tspan dx="0 " x="0" y="8">0..1</tspan></text><g transform="matrix(1 0 0 -1 353 607)"><rect fill="#FFFFFF" stroke="none" x="0" width="39" y="-10" height="10" /></g><text transform="matrix(1 0 0 1 353 607)" fill="#000000" stroke="none"><tspan dx="0 " x="0" y="8">+geometry</tspan></text><g transform="matrix(1 0 0 -1 349 735)"><rect fill="#FFFFFF" stroke="none" x="0" width="39" y="-10" height="10" /></g><text transform="matrix(1 0 0 1 349 735)" fill="#000000" stroke="none"><tspan dx="0 " x="0" y="8">+geometry</tspan></text><g transform="matrix(1 0 0 -1 595 290)"><rect fill="#FFFFFF" stroke="none" x="0" width="40" y="-10" height="10" /></g><text transform="matrix(1 0 0 1 595 290)" fill="#000000" stroke="none"><tspan dx="0 " x="0" y="8">+</tspan><tspan dx="0 " x="4.75" y="8">i</tspan><tspan dx="0 " x="7.25" y="8">d</tspan><tspan dx="0 " x="12.25" y="8">e</tspan><tspan dx="0 " x="17" y="8">n</tspan><tspan dx="0 0 " x="22" y="8">ti</tspan><tspan dx="0 0 " x="27.5" y="8">fi</tspan><tspan dx="0 " x="32.5" y="8">e</tspan><tspan dx="0 " x="37" y="8">r</tspan></text><g transform="matrix(1 0 0 -1 595 310)"><rect fill="#FFFFFF" stroke="none" x="0" width="13" y="-10" height="10" /></g><text transform="matrix(1 0 0 1 595 310)" fill="#000000" stroke="none"><tspan dx="0 " x="0" y="8">0..*</tspan></text><g transform="matrix(1 0 0 -1 971 274)"><rect fill="#FFFFFF" stroke="none" x="0" width="61" y="-10" height="10" /></g><text transform="matrix(1 0 0 1 971 274)" fill="#000000" stroke="none"><tspan dx="0 " x="0" y="8">+companyStatus</tspan></text><g transform="matrix(1 0 0 -1 1020 293)"><rect fill="#FFFFFF" stroke="none" x="0" width="13" y="-10" height="10" /></g><text transform="matrix(1 0 0 1 1020 293)" fill="#000000" stroke="none"><tspan dx="0 " x="0" y="8">0..1</tspan></text><g transform="matrix(1 0 0 -1 595 390)"><rect fill="#FFFFFF" stroke="none" x="0" width="31" y="-10" height="10" /></g><text transform="matrix(1 0 0 1 595 390)" fill="#000000" stroke="none"><tspan dx="0 " x="0" y="8">+change</tspan></text><g transform="matrix(1 0 0 -1 286 242)"><rect fill="#FFFFFF" stroke="none" x="0" width="42" y="-10" height="10" /></g><text transform="matrix(1 0 0 1 286 242)" fill="#000000" stroke="none"><tspan dx="0 " x="0" y="8">+</tspan><tspan dx="0 " x="5" y="8">i</tspan><tspan dx="0 " x="7.5" y="8">d</tspan><tspan dx="0 " x="12.5" y="8">e</tspan><tspan dx="0 " x="17.25" y="8">n</tspan><tspan dx="0 0 " x="22.25" y="8">ti</tspan><tspan dx="0 0 " x="27.75" y="8">fi</tspan><tspan dx="0 " x="33.25" y="8">e</tspan><tspan dx="0 " x="38" y="8">s</tspan></text><g transform="matrix(1 0 0 -1 349 480)"><rect fill="#FFFFFF" stroke="none" x="0" width="46" y="-10" height="10" /></g><text transform="matrix(1 0 0 1 349 480)" fill="#000000" stroke="none"><tspan dx="0 " x="0" y="8">+</tspan><tspan dx="0 " x="4.75" y="8">c</tspan><tspan dx="0 " x="8.5" y="8">i</tspan><tspan dx="0 0 " x="11" y="8">ti</tspan><tspan dx="0 " x="16.5" y="8">z</tspan><tspan dx="0 " x="20.25" y="8">e</tspan><tspan dx="0 " x="25" y="8">n</tspan><tspan dx="0 " x="30" y="8">s</tspan><tspan dx="0 " x="33.75" y="8">h</tspan><tspan dx="0 " x="38.75" y="8">i</tspan><tspan dx="0 " x="41.25" y="8">p</tspan></text><g transform="matrix(1 0 0 -1 613 263)"><rect fill="#FFFFFF" stroke="none" x="0" width="60" y="-10" height="10" /></g><text transform="matrix(1 0 0 1 613 263)" fill="#000000" stroke="none"><tspan dx="0 " x="0" y="8">+</tspan><tspan dx="0 " x="5" y="8">l</tspan><tspan dx="0 " x="7.5" y="8">e</tspan><tspan dx="0 " x="12.25" y="8">g</tspan><tspan dx="0 " x="16.75" y="8">a</tspan><tspan dx="0 " x="21.25" y="8">l</tspan><tspan dx="0 " x="23.75" y="8">I</tspan><tspan dx="0 " x="26.25" y="8">d</tspan><tspan dx="0 " x="31.25" y="8">e</tspan><tspan dx="0 " x="36" y="8">n</tspan><tspan dx="0 0 " x="41" y="8">ti</tspan><tspan dx="0 0 " x="46.5" y="8">fi</tspan><tspan dx="0 " x="52" y="8">e</tspan><tspan dx="0 " x="56.75" y="8">r</tspan></text><g transform="matrix(1 0 0 -1 595 278)"><rect fill="#FFFFFF" stroke="none" x="0" width="4" y="-10" height="10" /></g><text transform="matrix(1 0 0 1 595 278)" fill="#000000" stroke="none"><tspan dx="0 " x="0" y="8">1</tspan></text><g transform="matrix(1 0 0 -1 984 324)"><rect fill="#FFFFFF" stroke="none" x="0" width="55" y="-10" height="10" /></g><text transform="matrix(1 0 0 1 984 324)" fill="#000000" stroke="none"><tspan dx="0 " x="0" y="8">+companyType</tspan></text><g transform="matrix(1 0 0 -1 1020 343)"><rect fill="#FFFFFF" stroke="none" x="0" width="13" y="-10" height="10" /></g><text transform="matrix(1 0 0 1 1020 343)" fill="#000000" stroke="none"><tspan dx="0 " x="0" y="8">0..1</tspan></text><g transform="matrix(1 0 0 -1 354 285)"><rect fill="#FFFFFF" stroke="none" x="0" width="40" y="-10" height="10" /></g><text transform="matrix(1 0 0 1 354 285)" fill="#000000" stroke="none"><tspan dx="0 " x="0" y="8">+</tspan><tspan dx="0 " x="4.75" y="8">i</tspan><tspan dx="0 " x="7.25" y="8">d</tspan><tspan dx="0 " x="12.25" y="8">e</tspan><tspan dx="0 " x="17" y="8">n</tspan><tspan dx="0 0 " x="22" y="8">ti</tspan><tspan dx="0 0 " x="27.5" y="8">fi</tspan><tspan dx="0 " x="32.5" y="8">e</tspan><tspan dx="0 " x="37" y="8">r</tspan></text><g transform="matrix(1 0 0 -1 921 132)"><rect fill="#FFFFFF" stroke="none" x="0" width="30" y="-10" height="10" /></g><text transform="matrix(1 0 0 1 921 132)" fill="#000000" stroke="none"><tspan dx="0 " x="0" y="8">+heldBy</tspan></text><g transform="matrix(1 0 0 -1 595 330)"><rect fill="#FFFFFF" stroke="none" x="0" width="31" y="-10" height="10" /></g><text transform="matrix(1 0 0 1 595 330)" fill="#000000" stroke="none"><tspan dx="0 " x="0" y="8">+change</tspan></text><g transform="matrix(1 0 0 -1 175 676)"><rect fill="#FFFFFF" stroke="none" x="0" width="63" y="-10" height="10" /></g><text transform="matrix(1 0 0 1 175 676)" fill="#000000" stroke="none"><tspan dx="0 " x="0" y="8">+countryOfDeath</tspan></text><g transform="matrix(1 0 0 -1 349 436)"><rect fill="#FFFFFF" stroke="none" x="0" width="40" y="-10" height="10" /></g><text transform="matrix(1 0 0 1 349 436)" fill="#000000" stroke="none"><tspan dx="0 " x="0" y="8">+residency</tspan></text><g transform="matrix(1 0 0 -1 992 160)"><rect fill="#FFFFFF" stroke="none" x="0" width="53" y="-10" height="10" /></g><text transform="matrix(1 0 0 1 992 160)" fill="#000000" stroke="none"><tspan dx="0 " x="0" y="8">+holdsLicence</tspan></text><g transform="matrix(1 0 0 -1 973 236)"><rect fill="#FFFFFF" stroke="none" x="0" width="64" y="-10" height="10" /></g><text transform="matrix(1 0 0 1 973 236)" fill="#000000" stroke="none"><tspan dx="0 " x="0" y="8">+</tspan><tspan dx="0 " x="4.5" y="8">c</tspan><tspan dx="0 " x="8" y="8">o</tspan><tspan dx="0 " x="12.75" y="8">m</tspan><tspan dx="0 " x="19.75" y="8">p</tspan><tspan dx="0 " x="24.5" y="8">a</tspan><tspan dx="0 " x="28.75" y="8">n</tspan><tspan dx="0 " x="33.5" y="8">y</tspan><tspan dx="0 " x="37.75" y="8">A</tspan><tspan dx="0 " x="43" y="8">c</tspan><tspan dx="0 0 " x="46.5" y="8">ti</tspan><tspan dx="0 " x="51.5" y="8">v</tspan><tspan dx="0 " x="55.5" y="8">i</tspan><tspan dx="0 " x="57.5" y="8">t</tspan><tspan dx="0 " x="60" y="8">y</tspan></text><g transform="matrix(1 0 0 -1 1020 256)"><rect fill="#FFFFFF" stroke="none" x="0" width="13" y="-10" height="10" /></g><text transform="matrix(1 0 0 1 1020 256)" fill="#000000" stroke="none"><tspan dx="0 " x="0" y="8">0..*</tspan></text><g transform="matrix(1 0 0 -1 361 372)"><rect fill="#FFFFFF" stroke="none" x="0" width="31" y="-10" height="10" /></g><text transform="matrix(1 0 0 1 361 372)" fill="#000000" stroke="none"><tspan dx="0 " x="0" y="8">+change</tspan></text><g transform="matrix(1 0 0 -1 682 213)"><rect fill="#FFFFFF" stroke="none" x="0" width="42" y="-10" height="10" /></g><text transform="matrix(1 0 0 1 682 213)" fill="#000000" stroke="none"><tspan dx="0 " x="0" y="8">+</tspan><tspan dx="0 " x="5" y="8">i</tspan><tspan dx="0 " x="7.5" y="8">d</tspan><tspan dx="0 " x="12.5" y="8">e</tspan><tspan dx="0 " x="17.25" y="8">n</tspan><tspan dx="0 0 " x="22.25" y="8">ti</tspan><tspan dx="0 0 " x="27.75" y="8">fi</tspan><tspan dx="0 " x="33.25" y="8">e</tspan><tspan dx="0 " x="38" y="8">s</tspan></text><g transform="matrix(1 0 0 -1 703 249)"><rect fill="#FFFFFF" stroke="none" x="0" width="13" y="-10" height="10" /></g><text transform="matrix(1 0 0 1 703 249)" fill="#000000" stroke="none"><tspan dx="0 " x="0" y="8">0..1</tspan></text><g transform="matrix(1 0 0 -1 129 663)"><rect fill="#FFFFFF" stroke="none" x="0" width="51" y="-10" height="10" /></g><text transform="matrix(1 0 0 1 129 663)" fill="#000000" stroke="none"><tspan dx="0 " x="0" y="8">+placeOfBirth</tspan></text></g></g></g></g></svg>