<?xml version="1.0" encoding="utf-8"?><svg version="1.1" preserveAspectRatio="xMidYMid" xml:space="preserve" width="531.85851pt" height="665.30111pt" viewBox="5.6698900000000005 16.54459 531.85851 665.30111" xmlns="http://www.w3.org/2000/svg" xmlns:xlink="http://www.w3.org/1999/xlink"><desc xmlns:eadoc="http://www.siemens.com/eauml/doc"><eadoc:guid>EAID_ECB70461_6D3B_4f2a_A31C_5423B2483729</eadoc:guid><eadoc:name>CCCEV</eadoc:name><eadoc:type>Diagram</eadoc:type><eadoc:note></eadoc:note></desc><g transform="matrix(1 0 0 -1 0 841)"><g stroke="#000000" fill="none" fill-rule="evenodd" stroke-width="1" stroke-linecap="round" stroke-linejoin="round" stroke-miterlimit="3" letter-spacing="normal" font-weight="normal" font-style="normal" baseline-shift="0"><g transform="matrix(0.5 0 0 0.5 0 841.650024)"><g transform="matrix(1.438936 0 0 -1.439692 0 0)" font-family="CalibriUnicode" font-size="8"><path fill="#DFDFDF" stroke="none" d="M94 49C94 44 94 44 99 44H234C239 44 239 44 239 49V90C239 95 239 95 234 95H99C94 95 94 95 94 90V49" /><path fill="#FEFAF7" stroke="none" d="M91 46C91 41 91 41 96 41H231C236 41 236 41 236 46V87C236 92 236 92 231 92H96C91 92 91 92 91 87V46" /><path d="M91 46C91 41 91 41 96 41H231C236 41 236 41 236 46V87C236 92 236 92 231 92H96C91 92 91 92 91 87V46m0 0C91 41 91 41 96 41H231C236 41 236 41 236 46V87C236 92 236 92 231 92H96C91 92 91 92 91 87V46" /><rect x="91" y="41" width="145" height="51" /><text transform="matrix(1 0 0 1 132 47)" fill="#000000" stroke="none"><tspan dx="0 " x="0" y="8">«CPSV vocabulary»</tspan></text><text transform="matrix(1 0 0 1 132 57)" fill="#000000" font-weight="bold" stroke="none"><desc xmlns:eadoc="http://www.siemens.com/eauml/doc"><eadoc:guid>EAID_12CFA83B_F003_42db_AAEC_42453C7583DE</eadoc:guid><eadoc:name>FormalFramework</eadoc:name><eadoc:type>Class</eadoc:type><eadoc:note></eadoc:note></desc><tspan dx="0 " x="0" y="8">FormalFramework</tspan></text><path fill="#DFDFDF" stroke="none" d="M260 764C260 759 260 759 265 759H403C408 759 408 759 408 764v91C408 860 408 860 403 860H265C260 860 260 860 260 855V764" /><path fill="#FEFAF7" stroke="none" d="M257 761C257 756 257 756 262 756H400C405 756 405 756 405 761v91C405 857 405 857 400 857H262C257 857 257 857 257 852V761" /><path d="M257 761C257 756 257 756 262 756H400C405 756 405 756 405 761v91C405 857 405 857 400 857H262C257 857 257 857 257 852V761m0 0C257 756 257 756 262 756H400C405 756 405 756 405 761v91C405 857 405 857 400 857H262C257 857 257 857 257 852V761" /><rect x="257" y="756" width="148" height="101" /><text transform="matrix(1 0 0 1 316 765)" fill="#000000" font-weight="bold" stroke="none"><desc xmlns:eadoc="http://www.siemens.com/eauml/doc"><eadoc:guid>EAID_A77FDB41_3E5A_4694_A83D_512ED7E3DCAD</eadoc:guid><eadoc:name>Evidence</eadoc:name><eadoc:type>Class</eadoc:type><eadoc:note></eadoc:note></desc><tspan dx="0 " x="0" y="8">Evidence</tspan></text><path d="M257 780H405" /><text transform="matrix(1 0 0 1 262 784)" fill="#2F4F4F" stroke="none"><tspan dx="0 " x="0" y="8">- </tspan></text><text transform="matrix(1 0 0 1 276 784)" fill="#2F4F4F" stroke="none"><tspan dx="0 " x="0" y="8">i</tspan><tspan dx="0 " x="2.5" y="8">d</tspan><tspan dx="0 " x="7.5" y="8">e</tspan><tspan dx="0 " x="12.25" y="8">n</tspan><tspan dx="0 0 " x="17.25" y="8">ti</tspan><tspan dx="0 0 " x="22.75" y="8">fi</tspan><tspan dx="0 " x="28.25" y="8">e</tspan><tspan dx="0 " x="33" y="8">r</tspan></text><text transform="matrix(1 0 0 1 262 794)" fill="#2F4F4F" stroke="none"><tspan dx="0 " x="0" y="8">- </tspan></text><text transform="matrix(1 0 0 1 276 794)" fill="#2F4F4F" stroke="none"><tspan dx="0 " x="0" y="8">evidencetype</tspan></text><text transform="matrix(1 0 0 1 262 804)" fill="#2F4F4F" stroke="none"><tspan dx="0 " x="0" y="8">- </tspan></text><text transform="matrix(1 0 0 1 276 804)" fill="#2F4F4F" stroke="none"><tspan dx="0 " x="0" y="8">name</tspan></text><text transform="matrix(1 0 0 1 262 814)" fill="#2F4F4F" stroke="none"><tspan dx="0 " x="0" y="8">- </tspan></text><text transform="matrix(1 0 0 1 276 814)" fill="#2F4F4F" stroke="none"><tspan dx="0 " x="0" y="8">d</tspan><tspan dx="0 " x="5" y="8">e</tspan><tspan dx="0 " x="9.75" y="8">s</tspan><tspan dx="0 " x="13.5" y="8">c</tspan><tspan dx="0 " x="17.25" y="8">r</tspan><tspan dx="0 " x="20.5" y="8">i</tspan><tspan dx="0 " x="23" y="8">p</tspan><tspan dx="0 0 " x="28" y="8">ti</tspan><tspan dx="0 " x="33.5" y="8">o</tspan><tspan dx="0 " x="38.25" y="8">n</tspan></text><text transform="matrix(1 0 0 1 262 824)" fill="#2F4F4F" stroke="none"><tspan dx="0 " x="0" y="8">- </tspan></text><text transform="matrix(1 0 0 1 276 824)" fill="#2F4F4F" stroke="none"><tspan dx="0 " x="0" y="8">language</tspan></text><path fill="#DFDFDF" stroke="none" d="M253 135C253 130 253 130 258 130H387C392 130 392 130 392 135V239C392 244 392 244 387 244H258C253 244 253 244 253 239V135" /><path fill="#FEFAF7" stroke="none" d="M250 132C250 127 250 127 255 127H384C389 127 389 127 389 132V236C389 241 389 241 384 241H255C250 241 250 241 250 236V132" /><path d="M250 132C250 127 250 127 255 127H384C389 127 389 127 389 132V236C389 241 389 241 384 241H255C250 241 250 241 250 236V132m0 0C250 127 250 127 255 127H384C389 127 389 127 389 132V236C389 241 389 241 384 241H255C250 241 250 241 250 236V132" /><rect x="250" y="127" width="139" height="114" /><text transform="matrix(1 0 0 1 305 136)" fill="#000000" font-weight="bold" stroke="none"><desc xmlns:eadoc="http://www.siemens.com/eauml/doc"><eadoc:guid>EAID_114320AD_5E81_4e37_A23B_C716EF68EC53</eadoc:guid><eadoc:name>Criterion</eadoc:name><eadoc:type>Class</eadoc:type><eadoc:note></eadoc:note></desc><tspan dx="0 " x="0" y="8">Criterion</tspan></text><path d="M250 151H389" /><text transform="matrix(1 0 0 1 255 155)" fill="#2F4F4F" stroke="none"><tspan dx="0 " x="0" y="8">- </tspan></text><text transform="matrix(1 0 0 1 269 155)" fill="#2F4F4F" stroke="none"><tspan dx="0 " x="0" y="8">i</tspan><tspan dx="0 " x="2.5" y="8">d</tspan><tspan dx="0 " x="7.5" y="8">e</tspan><tspan dx="0 " x="12.25" y="8">n</tspan><tspan dx="0 0 " x="17.25" y="8">ti</tspan><tspan dx="0 0 " x="22.75" y="8">fi</tspan><tspan dx="0 " x="28.25" y="8">e</tspan><tspan dx="0 " x="33" y="8">r</tspan></text><text transform="matrix(1 0 0 1 255 165)" fill="#2F4F4F" stroke="none"><tspan dx="0 " x="0" y="8">- </tspan></text><text transform="matrix(1 0 0 1 269 165)" fill="#2F4F4F" stroke="none"><tspan dx="0 " x="0" y="8">criteriontype</tspan></text><text transform="matrix(1 0 0 1 255 175)" fill="#2F4F4F" stroke="none"><tspan dx="0 " x="0" y="8">- </tspan></text><text transform="matrix(1 0 0 1 269 175)" fill="#2F4F4F" stroke="none"><tspan dx="0 " x="0" y="8">name</tspan></text><text transform="matrix(1 0 0 1 255 185)" fill="#2F4F4F" stroke="none"><tspan dx="0 " x="0" y="8">- </tspan></text><text transform="matrix(1 0 0 1 269 185)" fill="#2F4F4F" stroke="none"><tspan dx="0 " x="0" y="8">d</tspan><tspan dx="0 " x="5" y="8">e</tspan><tspan dx="0 " x="9.75" y="8">s</tspan><tspan dx="0 " x="13.5" y="8">c</tspan><tspan dx="0 " x="17.25" y="8">r</tspan><tspan dx="0 " x="20.5" y="8">i</tspan><tspan dx="0 " x="23" y="8">p</tspan><tspan dx="0 0 " x="28" y="8">ti</tspan><tspan dx="0 " x="33.5" y="8">o</tspan><tspan dx="0 " x="38.25" y="8">n</tspan></text><text transform="matrix(1 0 0 1 255 195)" fill="#2F4F4F" stroke="none"><tspan dx="0 " x="0" y="8">- </tspan></text><text transform="matrix(1 0 0 1 269 195)" fill="#2F4F4F" stroke="none"><tspan dx="0 " x="0" y="8">f</tspan><tspan dx="0 " x="3" y="8">u</tspan><tspan dx="0 " x="8" y="8">l</tspan><tspan dx="0 0 " x="10.5" y="8">fi</tspan><tspan dx="0 " x="16" y="8">l</tspan><tspan dx="0 " x="18.5" y="8">l</tspan><tspan dx="0 " x="21" y="8">e</tspan><tspan dx="0 " x="25.75" y="8">d</tspan><tspan dx="0 " x="30.75" y="8"> </tspan><tspan dx="0 " x="33.25" y="8">i</tspan><tspan dx="0 " x="35.75" y="8">n</tspan><tspan dx="0 " x="40.75" y="8">d</tspan><tspan dx="0 " x="45.75" y="8">i</tspan><tspan dx="0 " x="48.25" y="8">c</tspan><tspan dx="0 " x="52.25" y="8">a</tspan><tspan dx="0 " x="56.5" y="8">t</tspan><tspan dx="0 " x="59.25" y="8">o</tspan><tspan dx="0 " x="64" y="8">r</tspan></text><text transform="matrix(1 0 0 1 255 205)" fill="#2F4F4F" stroke="none"><tspan dx="0 " x="0" y="8">- </tspan></text><text transform="matrix(1 0 0 1 269 205)" fill="#2F4F4F" stroke="none"><tspan dx="0 " x="0" y="8">weight</tspan></text><path fill="#DFDFDF" stroke="none" d="M42 288C42 283 42 283 47 283h89C141 283 141 283 141 288v59C141 352 141 352 136 352H47C42 352 42 352 42 347V288" /><path fill="#FEFAF7" stroke="none" d="M39 285C39 280 39 280 44 280h89C138 280 138 280 138 285v59C138 349 138 349 133 349H44C39 349 39 349 39 344V285" /><path d="M39 285C39 280 39 280 44 280h89C138 280 138 280 138 285v59C138 349 138 349 133 349H44C39 349 39 349 39 344V285m0 0C39 280 39 280 44 280h89C138 280 138 280 138 285v59C138 349 138 349 133 349H44C39 349 39 349 39 344V285" /><rect x="39" y="280" width="99" height="69" /><text transform="matrix(1 0 0 1 56 289)" fill="#000000" font-weight="bold" stroke="none"><desc xmlns:eadoc="http://www.siemens.com/eauml/doc"><eadoc:guid>EAID_B450B33C_5911_4e58_A771_10485AC81C64</eadoc:guid><eadoc:name>RequirementGroup</eadoc:name><eadoc:type>Class</eadoc:type><eadoc:note></eadoc:note></desc><tspan dx="0 " x="0" y="8">RequirementGroup</tspan></text><path d="M39 304h99" /><text transform="matrix(1 0 0 1 44 308)" fill="#2F4F4F" stroke="none"><tspan dx="0 " x="0" y="8">- </tspan></text><text transform="matrix(1 0 0 1 58 308)" fill="#2F4F4F" stroke="none"><tspan dx="0 " x="0" y="8">i</tspan><tspan dx="0 " x="2.5" y="8">d</tspan><tspan dx="0 " x="7.5" y="8">e</tspan><tspan dx="0 " x="12.25" y="8">n</tspan><tspan dx="0 0 " x="17.25" y="8">ti</tspan><tspan dx="0 0 " x="22.75" y="8">fi</tspan><tspan dx="0 " x="28.25" y="8">e</tspan><tspan dx="0 " x="33" y="8">r</tspan></text><text transform="matrix(1 0 0 1 44 318)" fill="#2F4F4F" stroke="none"><tspan dx="0 " x="0" y="8">- </tspan></text><text transform="matrix(1 0 0 1 58 318)" fill="#2F4F4F" stroke="none"><tspan dx="0 " x="0" y="8">d</tspan><tspan dx="0 " x="5" y="8">e</tspan><tspan dx="0 " x="9.75" y="8">s</tspan><tspan dx="0 " x="13.5" y="8">c</tspan><tspan dx="0 " x="17.25" y="8">r</tspan><tspan dx="0 " x="20.5" y="8">i</tspan><tspan dx="0 " x="23" y="8">p</tspan><tspan dx="0 0 " x="28" y="8">ti</tspan><tspan dx="0 " x="33.5" y="8">o</tspan><tspan dx="0 " x="38.25" y="8">n</tspan></text><path fill="#DFDFDF" stroke="none" d="M196 426C196 421 196 421 201 421H336C341 421 341 421 341 426V581C341 586 341 586 336 586H201C196 586 196 586 196 581V426" /><path fill="#FEFAF7" stroke="none" d="M193 423C193 418 193 418 198 418H333C338 418 338 418 338 423V578C338 583 338 583 333 583H198C193 583 193 583 193 578V423" /><path d="M193 423C193 418 193 418 198 418H333C338 418 338 418 338 423V578C338 583 338 583 333 583H198C193 583 193 583 193 578V423m0 0C193 418 193 418 198 418H333C338 418 338 418 338 423V578C338 583 338 583 333 583H198C193 583 193 583 193 578V423" /><rect x="193" y="418" width="145" height="165" /><text transform="matrix(1 0 0 1 229 427)" fill="#000000" font-weight="bold" stroke="none"><desc xmlns:eadoc="http://www.siemens.com/eauml/doc"><eadoc:guid>EAID_989FFC80_CF32_434a_B049_F6F5B92CC113</eadoc:guid><eadoc:name>CriterionRequirement</eadoc:name><eadoc:type>Class</eadoc:type><eadoc:note></eadoc:note></desc><tspan dx="0 " x="0" y="8">CriterionRequirement</tspan></text><path d="M193 442H338" /><text transform="matrix(1 0 0 1 198 446)" fill="#2F4F4F" stroke="none"><tspan dx="0 " x="0" y="8">- </tspan></text><text transform="matrix(1 0 0 1 212 446)" fill="#2F4F4F" stroke="none"><tspan dx="0 " x="0" y="8">i</tspan><tspan dx="0 " x="2.5" y="8">d</tspan><tspan dx="0 " x="7.5" y="8">e</tspan><tspan dx="0 " x="12.25" y="8">n</tspan><tspan dx="0 0 " x="17.25" y="8">ti</tspan><tspan dx="0 0 " x="22.75" y="8">fi</tspan><tspan dx="0 " x="28.25" y="8">e</tspan><tspan dx="0 " x="33" y="8">r</tspan></text><text transform="matrix(1 0 0 1 198 456)" fill="#2F4F4F" stroke="none"><tspan dx="0 " x="0" y="8">- </tspan></text><text transform="matrix(1 0 0 1 212 456)" fill="#2F4F4F" stroke="none"><tspan dx="0 " x="0" y="8">name</tspan></text><text transform="matrix(1 0 0 1 198 466)" fill="#2F4F4F" stroke="none"><tspan dx="0 " x="0" y="8">- </tspan></text><text transform="matrix(1 0 0 1 212 466)" fill="#2F4F4F" stroke="none"><tspan dx="0 " x="0" y="8">d</tspan><tspan dx="0 " x="5" y="8">e</tspan><tspan dx="0 " x="9.75" y="8">s</tspan><tspan dx="0 " x="13.5" y="8">c</tspan><tspan dx="0 " x="17.25" y="8">r</tspan><tspan dx="0 " x="20.5" y="8">i</tspan><tspan dx="0 " x="23" y="8">p</tspan><tspan dx="0 0 " x="28" y="8">ti</tspan><tspan dx="0 " x="33.5" y="8">o</tspan><tspan dx="0 " x="38.25" y="8">n</tspan></text><text transform="matrix(1 0 0 1 198 476)" fill="#2F4F4F" stroke="none"><tspan dx="0 " x="0" y="8">- </tspan></text><text transform="matrix(1 0 0 1 212 476)" fill="#2F4F4F" stroke="none"><tspan dx="0 " x="0" y="8">expecteddatatype</tspan></text><text transform="matrix(1 0 0 1 198 486)" fill="#2F4F4F" stroke="none"><tspan dx="0 " x="0" y="8">- </tspan></text><text transform="matrix(1 0 0 1 212 486)" fill="#2F4F4F" stroke="none"><tspan dx="0 " x="0" y="8">expectedvalue</tspan></text><text transform="matrix(1 0 0 1 198 496)" fill="#2F4F4F" stroke="none"><tspan dx="0 " x="0" y="8">- </tspan></text><text transform="matrix(1 0 0 1 212 496)" fill="#2F4F4F" stroke="none"><tspan dx="0 " x="0" y="8">maximumvalue</tspan></text><text transform="matrix(1 0 0 1 198 506)" fill="#2F4F4F" stroke="none"><tspan dx="0 " x="0" y="8">- </tspan></text><text transform="matrix(1 0 0 1 212 506)" fill="#2F4F4F" stroke="none"><tspan dx="0 " x="0" y="8">minimumvalue</tspan></text><text transform="matrix(1 0 0 1 198 516)" fill="#2F4F4F" stroke="none"><tspan dx="0 " x="0" y="8">- </tspan></text><text transform="matrix(1 0 0 1 212 516)" fill="#2F4F4F" stroke="none"><tspan dx="0 " x="0" y="8">t</tspan><tspan dx="0 " x="3" y="8">y</tspan><tspan dx="0 " x="7.5" y="8">p</tspan><tspan dx="0 " x="12.5" y="8">e</tspan><tspan dx="0 " x="17.25" y="8"> </tspan><tspan dx="0 " x="19.75" y="8">o</tspan><tspan dx="0 " x="24.75" y="8">f</tspan><tspan dx="0 " x="27.75" y="8"> </tspan><tspan dx="0 " x="30.25" y="8">t</tspan><tspan dx="0 " x="33.25" y="8">r</tspan><tspan dx="0 " x="36.25" y="8">a</tspan><tspan dx="0 " x="40.5" y="8">n</tspan><tspan dx="0 " x="45.25" y="8">s</tspan><tspan dx="0 " x="49" y="8">l</tspan><tspan dx="0 " x="51.25" y="8">a</tspan><tspan dx="0 0 " x="55.5" y="8">ti</tspan><tspan dx="0 " x="60.5" y="8">o</tspan><tspan dx="0 " x="65.25" y="8">n</tspan></text><text transform="matrix(1 0 0 1 198 526)" fill="#2F4F4F" stroke="none"><tspan dx="0 " x="0" y="8">- </tspan></text><text transform="matrix(1 0 0 1 212 526)" fill="#2F4F4F" stroke="none"><tspan dx="0 " x="0" y="8">l</tspan><tspan dx="0 " x="2.5" y="8">e</tspan><tspan dx="0 " x="7.25" y="8">v</tspan><tspan dx="0 " x="11.75" y="8">e</tspan><tspan dx="0 " x="16.5" y="8">l</tspan><tspan dx="0 " x="19" y="8"> </tspan><tspan dx="0 " x="21.5" y="8">o</tspan><tspan dx="0 " x="26.5" y="8">f</tspan><tspan dx="0 " x="29.5" y="8"> </tspan><tspan dx="0 " x="32" y="8">c</tspan><tspan dx="0 " x="36" y="8">e</tspan><tspan dx="0 " x="40.5" y="8">r</tspan><tspan dx="0 0 " x="43.5" y="8">ti</tspan><tspan dx="0 0 " x="48.5" y="8">fi</tspan><tspan dx="0 " x="53.5" y="8">c</tspan><tspan dx="0 " x="57.25" y="8">a</tspan><tspan dx="0 0 " x="61.5" y="8">ti</tspan><tspan dx="0 " x="66.5" y="8">o</tspan><tspan dx="0 " x="71.25" y="8">n</tspan></text><text transform="matrix(1 0 0 1 198 536)" fill="#2F4F4F" stroke="none"><tspan dx="0 " x="0" y="8">- </tspan></text><text transform="matrix(1 0 0 1 212 536)" fill="#2F4F4F" stroke="none"><tspan dx="0 " x="0" y="8">type of copy quality</tspan></text><path fill="#DFDFDF" stroke="none" d="M393 602C393 597 393 597 398 597h79C482 597 482 597 482 602v59C482 666 482 666 477 666H398C393 666 393 666 393 661V602" /><path fill="#FEFAF7" stroke="none" d="M390 599C390 594 390 594 395 594h79C479 594 479 594 479 599v59C479 663 479 663 474 663H395C390 663 390 663 390 658V599" /><path d="M390 599C390 594 390 594 395 594h79C479 594 479 594 479 599v59C479 663 479 663 474 663H395C390 663 390 663 390 658V599m0 0C390 594 390 594 395 594h79C479 594 479 594 479 599v59C479 663 479 663 474 663H395C390 663 390 663 390 658V599" /><rect x="390" y="594" width="89" height="69" /><text transform="matrix(1 0 0 1 411 603)" fill="#000000" font-weight="bold" stroke="none"><desc xmlns:eadoc="http://www.siemens.com/eauml/doc"><eadoc:guid>EAID_0FBEA3DB_8025_46e4_9D0B_C7852ED09793</eadoc:guid><eadoc:name>PeriodOfTime</eadoc:name><eadoc:type>Class</eadoc:type><eadoc:note></eadoc:note></desc><tspan dx="0 " x="0" y="8">PeriodOfTime</tspan></text><path d="M390 618h89" /><text transform="matrix(1 0 0 1 395 622)" fill="#2F4F4F" stroke="none"><tspan dx="0 " x="0" y="8">- </tspan></text><text transform="matrix(1 0 0 1 409 622)" fill="#2F4F4F" stroke="none"><tspan dx="0 " x="0" y="8">s</tspan><tspan dx="0 " x="3.75" y="8">t</tspan><tspan dx="0 " x="6.75" y="8">a</tspan><tspan dx="0 " x="11.25" y="8">r</tspan><tspan dx="0 0 0 " x="14.5" y="8">tti</tspan><tspan dx="0 " x="23" y="8">m</tspan><tspan dx="0 " x="30.25" y="8">e</tspan></text><text transform="matrix(1 0 0 1 395 632)" fill="#2F4F4F" stroke="none"><tspan dx="0 " x="0" y="8">- </tspan></text><text transform="matrix(1 0 0 1 409 632)" fill="#2F4F4F" stroke="none"><tspan dx="0 " x="0" y="8">e</tspan><tspan dx="0 " x="4.75" y="8">n</tspan><tspan dx="0 " x="9.75" y="8">d</tspan><tspan dx="0 0 " x="14.75" y="8">ti</tspan><tspan dx="0 " x="20.25" y="8">m</tspan><tspan dx="0 " x="27.5" y="8">e</tspan></text><path fill="#DFDFDF" stroke="none" d="M504 430C504 425 504 425 509 425H645C650 425 650 425 650 430v78C650 513 650 513 645 513H509C504 513 504 513 504 508V430" /><path fill="#FEFAF7" stroke="none" d="M501 427C501 422 501 422 506 422H642C647 422 647 422 647 427v78C647 510 647 510 642 510H506C501 510 501 510 501 505V427" /><path d="M501 427C501 422 501 422 506 422H642C647 422 647 422 647 427v78C647 510 647 510 642 510H506C501 510 501 510 501 505V427m0 0C501 422 501 422 506 422H642C647 422 647 422 647 427v78C647 510 647 510 642 510H506C501 510 501 510 501 505V427" /><rect x="501" y="422" width="146" height="88" /><text transform="matrix(1 0 0 1 536 431)" fill="#000000" font-weight="bold" stroke="none"><desc xmlns:eadoc="http://www.siemens.com/eauml/doc"><eadoc:guid>EAID_B8B523CD_35B0_401d_85F3_14C06D020ACC</eadoc:guid><eadoc:name>RequirementResponse</eadoc:name><eadoc:type>Class</eadoc:type><eadoc:note></eadoc:note></desc><tspan dx="0 " x="0" y="8">RequirementResponse</tspan></text><path d="M501 446H647" /><text transform="matrix(1 0 0 1 506 450)" fill="#2F4F4F" stroke="none"><tspan dx="0 " x="0" y="8">- </tspan></text><text transform="matrix(1 0 0 1 520 450)" fill="#2F4F4F" stroke="none"><tspan dx="0 " x="0" y="8">i</tspan><tspan dx="0 " x="2.5" y="8">d</tspan><tspan dx="0 " x="7.5" y="8">e</tspan><tspan dx="0 " x="12.25" y="8">n</tspan><tspan dx="0 0 " x="17.25" y="8">ti</tspan><tspan dx="0 0 " x="22.75" y="8">fi</tspan><tspan dx="0 " x="28.25" y="8">e</tspan><tspan dx="0 " x="33" y="8">r</tspan></text><text transform="matrix(1 0 0 1 506 460)" fill="#2F4F4F" stroke="none"><tspan dx="0 " x="0" y="8">- </tspan></text><text transform="matrix(1 0 0 1 520 460)" fill="#2F4F4F" stroke="none"><tspan dx="0 " x="0" y="8">name</tspan></text><text transform="matrix(1 0 0 1 506 470)" fill="#2F4F4F" stroke="none"><tspan dx="0 " x="0" y="8">- </tspan></text><text transform="matrix(1 0 0 1 520 470)" fill="#2F4F4F" stroke="none"><tspan dx="0 " x="0" y="8">d</tspan><tspan dx="0 " x="5" y="8">e</tspan><tspan dx="0 " x="9.75" y="8">s</tspan><tspan dx="0 " x="13.5" y="8">c</tspan><tspan dx="0 " x="17.25" y="8">r</tspan><tspan dx="0 " x="20.5" y="8">i</tspan><tspan dx="0 " x="23" y="8">p</tspan><tspan dx="0 0 " x="28" y="8">ti</tspan><tspan dx="0 " x="33.5" y="8">o</tspan><tspan dx="0 " x="38.25" y="8">n</tspan></text><text transform="matrix(1 0 0 1 506 480)" fill="#2F4F4F" stroke="none"><tspan dx="0 " x="0" y="8">- </tspan></text><text transform="matrix(1 0 0 1 520 480)" fill="#2F4F4F" stroke="none"><tspan dx="0 " x="0" y="8">value</tspan></text><path fill="#DFDFDF" stroke="none" d="M22 768C22 763 22 763 27 763H153C158 763 158 763 158 768v81C158 854 158 854 153 854H27C22 854 22 854 22 849V768" /><path fill="#FEFAF7" stroke="none" d="M19 765C19 760 19 760 24 760H150C155 760 155 760 155 765v81C155 851 155 851 150 851H24C19 851 19 851 19 846V765" /><path d="M19 765C19 760 19 760 24 760H150C155 760 155 760 155 765v81C155 851 155 851 150 851H24C19 851 19 851 19 846V765m0 0C19 760 19 760 24 760H150C155 760 155 760 155 765v81C155 851 155 851 150 851H24C19 851 19 851 19 846V765" /><rect x="19" y="760" width="136" height="91" /><text transform="matrix(1 0 0 1 52 769)" fill="#000000" font-weight="bold" stroke="none"><desc xmlns:eadoc="http://www.siemens.com/eauml/doc"><eadoc:guid>EAID_49415F7B_B5D9_4651_845C_62A6DC860C4D</eadoc:guid><eadoc:name>DocumentReference</eadoc:name><eadoc:type>Class</eadoc:type><eadoc:note></eadoc:note></desc><tspan dx="0 " x="0" y="8">DocumentReference</tspan></text><path d="M19 784H155" /><text transform="matrix(1 0 0 1 24 788)" fill="#2F4F4F" stroke="none"><tspan dx="0 " x="0" y="8">- </tspan></text><text transform="matrix(1 0 0 1 38 788)" fill="#2F4F4F" stroke="none"><tspan dx="0 " x="0" y="8">i</tspan><tspan dx="0 " x="2.5" y="8">d</tspan><tspan dx="0 " x="7.5" y="8">e</tspan><tspan dx="0 " x="12.25" y="8">n</tspan><tspan dx="0 0 " x="17.25" y="8">ti</tspan><tspan dx="0 0 " x="22.75" y="8">fi</tspan><tspan dx="0 " x="28.25" y="8">e</tspan><tspan dx="0 " x="33" y="8">r</tspan></text><text transform="matrix(1 0 0 1 24 798)" fill="#2F4F4F" stroke="none"><tspan dx="0 " x="0" y="8">- </tspan></text><text transform="matrix(1 0 0 1 38 798)" fill="#2F4F4F" stroke="none"><tspan dx="0 " x="0" y="8">URL</tspan></text><text transform="matrix(1 0 0 1 24 808)" fill="#2F4F4F" stroke="none"><tspan dx="0 " x="0" y="8">- </tspan></text><text transform="matrix(1 0 0 1 38 808)" fill="#2F4F4F" stroke="none"><tspan dx="0 " x="0" y="8">d</tspan><tspan dx="0 " x="5" y="8">e</tspan><tspan dx="0 " x="9.75" y="8">s</tspan><tspan dx="0 " x="13.5" y="8">c</tspan><tspan dx="0 " x="17.25" y="8">r</tspan><tspan dx="0 " x="20.5" y="8">i</tspan><tspan dx="0 " x="23" y="8">p</tspan><tspan dx="0 0 " x="28" y="8">ti</tspan><tspan dx="0 " x="33.5" y="8">o</tspan><tspan dx="0 " x="38.25" y="8">n</tspan></text><text transform="matrix(1 0 0 1 24 818)" fill="#2F4F4F" stroke="none"><tspan dx="0 " x="0" y="8">- </tspan></text><text transform="matrix(1 0 0 1 38 818)" fill="#2F4F4F" stroke="none"><tspan dx="0 " x="0" y="8">type</tspan></text><path fill="#DFDFDF" stroke="none" d="M591 873C591 868 591 868 596 868H731C736 868 736 868 736 873v59C736 937 736 937 731 937H596C591 937 591 937 591 932V873" /><path fill="#FEFAF7" stroke="none" d="M588 870C588 865 588 865 593 865H728C733 865 733 865 733 870v59C733 934 733 934 728 934H593C588 934 588 934 588 929V870" /><path d="M588 870C588 865 588 865 593 865H728C733 865 733 865 733 870v59C733 934 733 934 728 934H593C588 934 588 934 588 929V870m0 0C588 865 588 865 593 865H728C733 865 733 865 733 870v59C733 934 733 934 728 934H593C588 934 588 934 588 929V870" /><rect x="588" y="865" width="145" height="69" /><text transform="matrix(1 0 0 1 620 871)" fill="#000000" stroke="none"><tspan dx="0 " x="0" y="8">«</tspan><tspan dx="0 " x="5" y="8">O</tspan><tspan dx="0 " x="11" y="8">r</tspan><tspan dx="0 " x="14.25" y="8">g</tspan><tspan dx="0 " x="18.75" y="8">a</tspan><tspan dx="0 " x="23.25" y="8">n</tspan><tspan dx="0 " x="28" y="8">i</tspan><tspan dx="0 " x="30.25" y="8">s</tspan><tspan dx="0 " x="33.75" y="8">a</tspan><tspan dx="0 0 " x="38" y="8">ti</tspan><tspan dx="0 " x="43" y="8">o</tspan><tspan dx="0 " x="47.75" y="8">n</tspan><tspan dx="0 " x="52.5" y="8"> </tspan><tspan dx="0 " x="54.75" y="8">o</tspan><tspan dx="0 " x="59.5" y="8">n</tspan><tspan dx="0 " x="64.25" y="8">t</tspan><tspan dx="0 " x="67" y="8">o</tspan><tspan dx="0 " x="71.75" y="8">l</tspan><tspan dx="0 " x="74" y="8">o</tspan><tspan dx="0 " x="78.75" y="8">g</tspan><tspan dx="0 " x="83" y="8">y</tspan><tspan dx="0 " x="87.25" y="8">»</tspan></text><text transform="matrix(1 0 0 1 639 881)" fill="#000000" font-weight="bold" stroke="none"><desc xmlns:eadoc="http://www.siemens.com/eauml/doc"><eadoc:guid>EAID_49F18939_1089_4451_B8B7_33D6B3C36FA6</eadoc:guid><eadoc:name>Organisation</eadoc:name><eadoc:type>Class</eadoc:type><eadoc:note></eadoc:note></desc><tspan dx="0 " x="0" y="8">O</tspan><tspan dx="0 " x="5.75" y="8">r</tspan><tspan dx="0 " x="8.5" y="8">g</tspan><tspan dx="0 " x="12.5" y="8">a</tspan><tspan dx="0 " x="16.75" y="8">n</tspan><tspan dx="0 " x="21.25" y="8">i</tspan><tspan dx="0 " x="23.25" y="8">s</tspan><tspan dx="0 " x="26.5" y="8">a</tspan><tspan dx="0 0 " x="30.75" y="8">ti</tspan><tspan dx="0 " x="35.5" y="8">o</tspan><tspan dx="0 " x="39.75" y="8">n</tspan></text><path fill="#DFDFDF" stroke="none" d="M557 229C557 224 557 224 562 224H692C697 224 697 224 697 229v59C697 293 697 293 692 293H562C557 293 557 293 557 288V229" /><path fill="#FEFAF7" stroke="none" d="M554 226C554 221 554 221 559 221H689C694 221 694 221 694 226v59C694 290 694 290 689 290H559C554 290 554 290 554 285V226" /><path d="M554 226C554 221 554 221 559 221H689C694 221 694 221 694 226v59C694 290 694 290 689 290H559C554 290 554 290 554 285V226m0 0C554 221 554 221 559 221H689C694 221 694 221 694 226v59C694 290 694 290 689 290H559C554 290 554 290 554 285V226" /><rect x="554" y="221" width="140" height="69" /><text transform="matrix(1 0 0 1 614 230)" fill="#000000" font-weight="bold" stroke="none"><desc xmlns:eadoc="http://www.siemens.com/eauml/doc"><eadoc:guid>EAID_68C38C64_25B7_4530_8852_F42278B68C41</eadoc:guid><eadoc:name>Agent</eadoc:name><eadoc:type>Class</eadoc:type><eadoc:note></eadoc:note></desc><tspan dx="0 " x="0" y="8">Agent</tspan></text><path fill="#DFDFDF" stroke="none" d="M497 43C497 38 497 38 502 38H651C656 38 656 38 656 43v59C656 107 656 107 651 107H502C497 107 497 107 497 102V43" /><path fill="#FEFAF7" stroke="none" d="M494 40C494 35 494 35 499 35H648C653 35 653 35 653 40V99C653 104 653 104 648 104H499C494 104 494 104 494 99V40" /><path d="M494 40C494 35 494 35 499 35H648C653 35 653 35 653 40V99C653 104 653 104 648 104H499C494 104 494 104 494 99V40m0 0C494 35 494 35 499 35H648C653 35 653 35 653 40V99C653 104 653 104 648 104H499C494 104 494 104 494 99V40" /><rect x="494" y="35" width="159" height="69" /><text transform="matrix(1 0 0 1 531 41)" fill="#000000" stroke="none"><tspan dx="0 " x="0" y="8">«Core Person Vocabulary»</tspan></text><text transform="matrix(1 0 0 1 562 51)" fill="#000000" font-weight="bold" stroke="none"><desc xmlns:eadoc="http://www.siemens.com/eauml/doc"><eadoc:guid>EAID_491131C0_0C67_4501_A919_3ADD606007BA</eadoc:guid><eadoc:name>Person</eadoc:name><eadoc:type>Class</eadoc:type><eadoc:note></eadoc:note></desc><tspan dx="0 " x="0" y="8">Person</tspan></text><path d="M654 73h77m0 0V255m0 0H695" /><path fill="#F7DDB4" d="M711 249v12l-16 -6l16 -6" /><path d="M731 865V255" /><path d="M406 794H663m0 0V291m0 0l6 15m-6 -15l-6 15" /><path d="M584 291V422m0 0l-6 -15m6 15l6 -15" /><path d="M588 221V198m0 0H390m0 0l15 -6m-15 6l15 6" /><path d="M298 858v56m0 0H588m0 0l-15 6m15 -6l-15 -6" /><path d="M257 792H156m0 0l15 -6m-15 6l15 6" /><path d="M572 511V716m0 0H328m0 0v40m0 0l-6 -15m6 15l6 -15" /><path d="M261 584V756m0 0l-6 -15m6 15l6 -15" /><path d="M529 422V368m0 0H251m0 0v50m0 0l-6 -15m6 15l6 -15" /><path d="M501 485H452m0 0V594m0 0l-6 -15m6 15l6 -15" /><path d="M339 488h67m0 0V594m0 0l-6 -15m6 15l6 -15" /><path d="M62 350V482m0 0H193m0 0l-15 6m15 -6l-15 -6" /><path d="M318 242v79m0 0H139m0 0l15 -6m-15 6l15 6" /><path d="M328 127V76m0 0H237m0 0l15 -6m-15 6l15 6" /><g transform="matrix(1 0 0 -1 250 659)"><rect fill="#FFFFFF" stroke="none" x="0" width="25" y="-10" height="10" /></g><text transform="matrix(1 0 0 1 250 659)" fill="#000000" stroke="none"><tspan dx="0 " x="0" y="8">met by</tspan></text><g transform="matrix(1 0 0 -1 573 348)"><rect fill="#FFFFFF" stroke="none" x="0" width="33" y="-10" height="10" /></g><text transform="matrix(1 0 0 1 573 348)" fill="#000000" stroke="none"><tspan dx="0 " x="0" y="8">provides</tspan></text><g transform="matrix(1 0 0 -1 122 471)"><rect fill="#FFFFFF" stroke="none" x="0" width="14" y="-10" height="10" /></g><text transform="matrix(1 0 0 1 122 471)" fill="#000000" stroke="none"><tspan dx="0 " x="0" y="8">has</tspan></text><g transform="matrix(1 0 0 -1 434 705)"><rect fill="#FFFFFF" stroke="none" x="0" width="36" y="-10" height="10" /></g><text transform="matrix(1 0 0 1 434 705)" fill="#000000" stroke="none"><tspan dx="0 " x="0" y="8">proven by</tspan></text><g transform="matrix(1 0 0 -1 376 466)"><rect fill="#FFFFFF" stroke="none" x="0" width="51" y="-10" height="10" /></g><text transform="matrix(1 0 0 1 376 466)" fill="#000000" stroke="none"><tspan dx="0 " x="0" y="8">applicable in</tspan></text><g transform="matrix(1 0 0 -1 476 187)"><rect fill="#FFFFFF" stroke="none" x="0" width="33" y="-10" height="10" /></g><text transform="matrix(1 0 0 1 476 187)" fill="#000000" stroke="none"><tspan dx="0 " x="0" y="8">s</tspan><tspan dx="0 " x="4.25" y="8">a</tspan><tspan dx="0 0 " x="9" y="8">ti</tspan><tspan dx="0 " x="14.75" y="8">s</tspan><tspan dx="0 0 " x="18.75" y="8">fi</tspan><tspan dx="0 " x="24.25" y="8">e</tspan><tspan dx="0 " x="29" y="8">s</tspan></text><g transform="matrix(1 0 0 -1 428 903)"><rect fill="#FFFFFF" stroke="none" x="0" width="36" y="-10" height="10" /></g><text transform="matrix(1 0 0 1 428 903)" fill="#000000" stroke="none"><tspan dx="0 " x="0" y="8">issued by</tspan></text><g transform="matrix(1 0 0 -1 248 273)"><rect fill="#FFFFFF" stroke="none" x="0" width="42" y="-10" height="10" /></g><text transform="matrix(1 0 0 1 248 273)" fill="#000000" stroke="none"><tspan dx="0 " x="0" y="8">f</tspan><tspan dx="0 " x="3" y="8">u</tspan><tspan dx="0 " x="8" y="8">l</tspan><tspan dx="0 0 " x="10.5" y="8">fi</tspan><tspan dx="0 " x="16" y="8">l</tspan><tspan dx="0 " x="18.5" y="8">l</tspan><tspan dx="0 " x="21" y="8">e</tspan><tspan dx="0 " x="25.75" y="8">d</tspan><tspan dx="0 " x="30.75" y="8"> </tspan><tspan dx="0 " x="33" y="8">b</tspan><tspan dx="0 " x="37.75" y="8">y</tspan></text><g transform="matrix(1 0 0 -1 375 355)"><rect fill="#FFFFFF" stroke="none" x="0" width="35" y="-10" height="10" /></g><text transform="matrix(1 0 0 1 375 355)" fill="#000000" stroke="none"><tspan dx="0 " x="0" y="8">validates</tspan></text><g transform="matrix(1 0 0 -1 648 632)"><rect fill="#FFFFFF" stroke="none" x="0" width="40" y="-10" height="10" /></g><text transform="matrix(1 0 0 1 648 632)" fill="#000000" stroke="none"><tspan dx="0 " x="0" y="8">belongs to</tspan></text><g transform="matrix(1 0 0 -1 181 781)"><rect fill="#FFFFFF" stroke="none" x="0" width="58" y="-10" height="10" /></g><text transform="matrix(1 0 0 1 181 781)" fill="#000000" stroke="none"><tspan dx="0 " x="0" y="8">is supported by</tspan></text><g transform="matrix(1 0 0 -1 449 525)"><rect fill="#FFFFFF" stroke="none" x="0" width="39" y="-10" height="10" /></g><text transform="matrix(1 0 0 1 449 525)" fill="#000000" stroke="none"><tspan dx="0 " x="0" y="8">applies to</tspan></text><g transform="matrix(1 0 0 -1 263 65)"><rect fill="#FFFFFF" stroke="none" x="0" width="49" y="-10" height="10" /></g><text transform="matrix(1 0 0 1 263 65)" fill="#000000" stroke="none"><tspan dx="0 " x="0" y="8">i</tspan><tspan dx="0 " x="2.5" y="8">s</tspan><tspan dx="0 " x="6.5" y="8"> </tspan><tspan dx="0 " x="9" y="8">d</tspan><tspan dx="0 " x="14" y="8">e</tspan><tspan dx="0 0 " x="18.75" y="8">fi</tspan><tspan dx="0 " x="24.25" y="8">n</tspan><tspan dx="0 " x="29.25" y="8">e</tspan><tspan dx="0 " x="34" y="8">d</tspan><tspan dx="0 " x="39" y="8"> </tspan><tspan dx="0 " x="41.5" y="8">i</tspan><tspan dx="0 " x="44" y="8">n</tspan></text></g></g></g></g></svg>